<?xml version="1.0" encoding="UTF-8" standalone="no"?>
<!DOCTYPE svg PUBLIC "-//W3C//DTD SVG 1.1//EN" "http://www.w3.org/Graphics/SVG/1.1/DTD/svg11.dtd">
<svg width="100%" height="100%" viewBox="0 0 2000 2000" version="1.1" xmlns="http://www.w3.org/2000/svg" xmlns:xlink="http://www.w3.org/1999/xlink" xml:space="preserve" xmlns:serif="http://www.serif.com/" style="fill-rule:evenodd;clip-rule:evenodd;stroke-linejoin:round;stroke-miterlimit:2;">
    <g id="Slytherin-Outline" serif:id="Slytherin Outline" transform="matrix(0.251651,0,0,0.251651,-29.9063,-44.5926)">
        <path d="M2900.78,6896.38C2883.85,6858.54 2860.21,6829.28 2830.09,6822.48C2801.94,6816.13 2754.41,6821.32 2723.75,6853.04C2704.72,6872.72 2694.41,6897.83 2686.94,6925.72C2664.56,7009.3 2778.06,7111.09 2730.79,7172.26C2711.15,7197.68 2679.87,7206.35 2657.16,7193.25C2636.82,7181.5 2621.11,7147.67 2616.86,7131.66C2611.58,7111.76 2623.04,7083.54 2642.15,7045.2L2617.55,7024.51C2593.08,7069.21 2564.72,7115.22 2533.9,7162.04L2548.04,7179.44L2574.4,7159.24C2596.75,7205.11 2624.35,7224.04 2652.34,7237.21C2707.1,7262.96 2770.05,7216.74 2791.74,7184.08C2812.14,7153.37 2813.86,7115.8 2806.29,7074.32C2797.23,7024.67 2733.57,6965.18 2753.22,6909.72C2776.91,6842.87 2828.52,6857.36 2850.95,6893.39C2864.55,6915.24 2863.06,6961.52 2835.49,7014.13L2856.39,7032.36C2888.17,6979.57 2918.73,6934.16 2948.39,6894.25L2922.78,6870.91L2900.78,6896.38ZM2805.83,7317.45L3051.18,7426.32C3077.8,7388.74 3108.6,7353.89 3138.03,7322.73L3108.27,7309.19C3085.77,7339.62 3060.99,7352.34 3037.8,7361.54C3011.47,7371.99 2963.76,7344.93 2929.64,7317.69C2973.26,7219.71 3012.01,7107.63 3058.65,7030.26C3078.34,6997.6 3092.94,7012.53 3121.4,7023.87L3135.03,6991.27C3085.69,6971.52 3036.56,6948.55 2987.48,6924.81L2973.43,6957.49C2986.61,6959.72 2995.11,6965.8 2999.02,6975.63C3007.62,6997.23 2993.42,7019.79 2959.43,7093.99C2925.95,7167.07 2888.95,7269.19 2862.13,7296.11C2852.19,7306.09 2833.43,7303.06 2819.58,7291.87L2805.83,7317.45ZM3184.38,7018.18L3172.95,7045.21C3194.89,7055.15 3211.12,7068.95 3218.15,7096.93C3231.87,7151.5 3244.09,7231.84 3260.97,7301.51L3235.68,7398.23C3224.76,7431.09 3217.58,7447.87 3175.64,7432.7L3164.44,7460.62C3215.35,7472.31 3265.24,7488.38 3313.93,7509.6L3327.57,7475.12C3299.18,7464.88 3275.22,7467.5 3291.16,7420.63L3321.7,7316.57C3366.1,7269.49 3411.74,7224.78 3452.06,7177.67C3477.89,7147.47 3496.04,7146.17 3520.92,7151.31L3533.71,7117.71C3492.58,7109.62 3450.43,7099.8 3406.97,7082.49L3394.04,7106.88C3420.73,7116.41 3433.99,7130.55 3413.03,7156.44L3311.76,7258.6C3303.21,7213.8 3291.86,7169.97 3288.96,7126.59C3286.74,7093.39 3291.49,7079.76 3325,7089.88L3337.57,7064.44C3286.64,7049.91 3235.63,7034.86 3184.38,7018.18ZM3561.31,7127.61L3537.08,7244.07L3561.12,7249.26C3574.28,7184.68 3607.18,7169.1 3653.9,7187.76C3641.9,7289.34 3630.38,7390.78 3612.36,7494.08C3606.17,7529.56 3590.7,7540.44 3560.28,7530.34L3549.37,7560.89L3711.94,7583.13L3717.44,7549.55C3675.33,7548.3 3672.47,7538.7 3675.09,7502.6C3681.63,7412.36 3707.23,7300.04 3725.32,7197.42C3776.92,7192.84 3804.78,7215.14 3793.14,7282.16L3825.03,7288.19C3829.54,7246.91 3833.4,7208.23 3836.92,7170.9C3747.88,7156.41 3657.1,7141.95 3561.31,7127.61ZM4172.6,7545.69C4172.8,7450.5 4172.17,7347 4175.22,7266.95C4177.2,7215.06 4182.06,7214.65 4225.62,7213.6L4224.19,7178.23L4067.79,7175.4L4068.11,7213.51C4106.65,7210.57 4112.12,7223.68 4110.2,7266.63C4109,7293.65 4109.14,7331 4104.2,7370.82L3977.84,7368.14C3978.29,7335.15 3976.96,7300.82 3978.19,7267.7C3980.55,7204.04 3990.03,7212.28 4028.88,7212.38L4026.62,7177.27C3976.18,7180.56 3923.55,7178.48 3869.36,7175.6L3867.67,7208.56C3886.22,7208.05 3896.03,7205.78 3903.69,7215.32C3912.31,7226.06 3913.1,7244.07 3912.62,7275.98L3909.24,7529.61C3907.96,7557.96 3909.27,7576.44 3862.16,7575.75L3858.76,7609.27L4018.57,7610.27L4020.77,7578.72C3980.54,7581.35 3977.23,7571.98 3977.06,7538.11L3976.73,7410.45L4104.14,7411.28C4105.38,7452.07 4106.47,7493.13 4106.18,7536.69C4105.98,7567.18 4098.64,7582.1 4057.61,7581.68L4055.79,7609.7L4210.86,7615.85L4215.8,7580.07C4181.27,7584.68 4167.3,7572.88 4172.6,7545.69ZM4308.03,7273.86L4339.07,7524.87C4345.51,7564.37 4329.37,7580.39 4297.61,7580.17L4300.81,7611.01L4569.23,7572.23L4580.99,7449.38L4555.51,7451.03C4549.23,7491.35 4536.23,7519.16 4516.06,7534.89C4497.75,7549.16 4457.1,7553.86 4405.84,7551.85L4384.89,7393.77C4426.93,7386.65 4464.44,7381.43 4475.95,7390.03C4489.03,7399.8 4491.85,7412.74 4496.35,7440.97L4523.92,7437.97C4517.02,7381.57 4509.76,7329.79 4502.25,7281.19L4473.02,7282.58C4478.26,7306.59 4472.05,7321.15 4467.41,7334.11C4462.54,7347.74 4427.14,7345.78 4380.41,7349.07L4365.23,7210.69C4417.94,7203.44 4459.51,7192.62 4473.45,7204.45C4488.69,7217.38 4498.78,7227.9 4506.31,7260.49L4534.66,7260.49C4526.46,7221.46 4520.49,7183.65 4516.17,7146.74C4428.35,7159.54 4338.87,7171.12 4246.07,7180.24L4247.85,7214.26C4295.87,7207.86 4303.87,7212.89 4308.03,7273.86ZM4558.13,7168.82C4593.88,7154.66 4613.7,7175.71 4620.46,7225.66L4690.62,7450.07C4703.68,7490.76 4698.81,7516.61 4668.98,7521.8L4676.84,7553.55C4725.87,7537.54 4775.94,7523.26 4826.71,7510.17L4819.67,7478.17C4790.31,7489.01 4767.72,7482.6 4757.16,7445.45L4722.64,7334.1L4739.43,7329.72L4900.47,7482L4997.65,7450L4992.06,7423.03C4958.68,7427.97 4930.6,7422.17 4911.34,7398.49L4805.4,7301.05C4843.26,7257.09 4866.98,7201.11 4828.69,7149.28C4804.75,7116.87 4780.15,7097.62 4748.4,7090.96C4693.86,7079.52 4644.01,7118.27 4552.77,7138.61L4558.13,7168.82ZM4667.03,7154.16L4714.5,7291.93C4758.39,7282.82 4789.75,7245.59 4769.43,7190.82C4752.38,7144.85 4719.91,7136.26 4667.03,7154.16ZM4985.67,6969.84C4941.17,6998.16 4895.54,7024.24 4847.19,7044.91L4861.16,7077.71C4886.74,7056.83 4909.83,7068.2 4930.23,7114.42L5049.95,7345.81C5062.02,7369.33 5059.22,7388.99 5027.53,7401.16L5041.5,7432.93C5091.95,7406.81 5138.11,7382.32 5181.71,7358.8L5168.47,7330.51C5143.32,7350.17 5121.46,7349.07 5105.35,7311.78L4984.81,7072.84C4959.86,7038.65 4973.27,7018.75 4999.37,7003.57L4985.67,6969.84ZM5030.25,6954.94L5047.05,6984.95C5081.43,6957.85 5111.56,6963.17 5136.46,7008.32L5265.71,7210.26C5291.25,7240.75 5290.91,7263.71 5259.36,7277.6L5273.99,7310.32L5387.69,7236.95L5370.01,7208.87C5344.84,7232.46 5321.67,7229.62 5301.15,7191.59L5189.89,7012.43L5512.41,7163.43L5538.96,7147.63L5342.41,6839.02C5322.28,6812.43 5332.51,6795.14 5357.65,6782.41L5340.33,6753.79C5303.73,6781.92 5266.59,6808.38 5227.16,6827.95L5246.83,6856.81C5269.54,6830.83 5290.76,6829.24 5309.42,6869.55L5417.88,7034.14C5321.05,6994.34 5215.97,6946.73 5114.52,6900.85C5087.03,6918.03 5059.14,6935.78 5030.25,6954.94ZM3297.31,3623.32C3316.03,3642.99 3343.77,3649.84 3379.15,3645.8C3432.27,3639.75 3488.98,3612.43 3571.93,3563.93C3607.38,3543.2 3665.97,3563.22 3673.36,3586.76C3681.61,3613.02 3657.71,3632.37 3610.23,3667.22C3580.74,3688.88 3529.45,3688.87 3478.6,3699.1C3439.51,3706.97 3401.19,3728.26 3370.13,3725.05C3350.41,3723 3331.72,3717.71 3314.4,3708.17C3339.78,3707.61 3362.47,3699.49 3384.12,3688.47C3308.59,3672.06 3291.72,3649.5 3297.31,3623.32ZM3498.77,3648.32C3494.7,3632.27 3573.59,3588.11 3588.8,3600.07C3607.11,3614.45 3597.74,3640.77 3566.22,3656.5C3533.32,3672.92 3502.51,3663.11 3498.77,3648.32ZM4634.35,581.947C4681.72,581.336 4713.15,604.758 4733.05,645.566C4774.25,730.042 4735.94,844.55 4747.55,1063.53C4801.19,1096.54 4844.78,1139.38 4877.56,1192.83C4909.46,1244.84 4885.34,1311.02 4941.81,1379.68C5011.07,1412.04 5110.38,1478.29 5112.18,1584.27C5222.89,1572.96 5342.55,1660.94 5386.18,1766.67C5467.69,1754.35 5548.11,1752.28 5627.12,1763.42C5691.09,1772.44 5754.14,1790.11 5816.1,1818C5868.78,1748.45 5927.02,1696.79 5969.75,1690.5C6075.73,1674.91 6232.36,1660.04 6277.1,1690.5C6341.45,1734.31 6402.09,1792.27 6458.93,1864.78C6485.28,1898.4 6492.78,2088.83 6461.1,2189.51C6446.69,2235.29 6409.94,2262.56 6377.94,2292.99L6385.13,2325.73C6657.89,2292.26 6772.66,2375.89 6876.97,2465.38C6975.72,2550.11 7021.46,2672.9 7015.52,2832.53C7076.2,2849.73 7160.55,2887 7203.72,2944.79C7270.56,3034.27 7290.02,3136.55 7290.88,3234.03C7292.39,3404.12 7233.57,3564.7 7004.89,3714.29C7191.65,3959.18 7207.2,4413.92 7060.78,4754.84C7150.52,4983.57 7095.5,5153.51 6870.94,5254.62L6872.59,5308.92C7022.85,5267.92 7046.62,5374.94 7068.03,5434.97C7084.33,5480.69 7072.23,5538.11 7024.82,5610.07C6998,5650.77 7029.35,5872.78 7005.25,5974.25C6997.04,6008.81 6982.37,6052.44 6955.33,6081.57C6927.63,6111.4 6893.32,6131.16 6918.51,6151.31C7007.23,6222.27 7034.28,6261.01 7048.91,6356.21C7064.05,6454.71 7060.56,6593.48 7016.56,6682.31C6959.66,6797.22 6850.81,6882.36 6762.34,6928.07C6618.86,7002.19 6401.7,7012.46 6106.27,6954.9C5738.33,7621.97 4724.73,7953.16 4012.64,7951.64C3315.18,7950.16 2437.11,7691.07 1878.73,6971.48C1295.66,7056.52 1053.88,6783.08 969.396,6531.33C932.134,6420.31 960.043,6303.79 962.544,6228.53C964.653,6165.09 994.31,6101.53 1057.02,6037.81C961.723,5663.44 924.475,5271.09 1054.42,5216.69C1082.65,5204.87 1114.16,5197.54 1157.33,5210.38L1160.66,5172.38C949.652,5113.65 924.209,4867.95 965.821,4737.28C976.48,4703.81 1002.62,4675.08 1035.16,4647.72C867.932,4201.19 917.72,3830.11 1176.67,3573.03C881.057,3373.84 869.359,3070.55 913.208,2922.79C943.442,2820.91 1082,2715.23 1184.28,2711.66C1191.66,2538.29 1286.05,2446.46 1369.06,2375.16C1484.52,2276 1639.07,2251.4 1822.89,2282.66L1855.3,2124.21C1805.38,1814.32 1909.32,1798.27 1979.75,1713.64C2054.36,1623.99 2208.83,1652.34 2304.92,1681.6C2340.6,1692.46 2378.21,1714.02 2418.09,1748.14C2567.78,1707.54 2720.72,1703.98 2875.43,1720.42C2928.76,1669.67 3002.66,1656.85 3088.71,1666.41C3142.22,1538.44 3214.15,1456.34 3317.68,1452.93C3331.09,1352.26 3398.16,1269.23 3507.2,1199.99C3550.37,1051.33 3648.62,987.868 3768.48,957.826C3745.6,936.925 3729.54,914.539 3719.95,890.749C3705.42,854.705 3707.68,774.545 3727.53,725.112C3742.92,686.758 3810.56,649.751 3819.81,615.758C3901.27,316.571 4242.88,320.215 4420.12,387.475C4497.2,416.728 4569.03,478.991 4634.35,581.947ZM3960.19,3380.21C4064.04,3432.58 4141.42,3495.82 4192.64,3570.81C4313.28,3747.43 4310.69,3971.75 4233.59,4224.5C4166.45,4444.62 3933.22,4649.39 3771,4890.89C3665.79,5047.51 3568.46,5322.11 3575.62,5446.48C3598.09,5836.3 3848.8,5938.34 4011.12,5968.53C4217.76,6006.95 4625.58,5918.45 4692.09,5508.23C4599.72,5570.46 4500.98,5634.01 4386.42,5664.03C4162.41,5722.73 3939.33,5664.62 3835.56,5526.28C3733.39,5390.08 3709.91,5256.4 3732.84,5138.52C3786.03,4865.02 4179.28,4571.43 4678.85,4713.43C4541.28,4412.94 4419.48,4220.64 4405.14,4025.26C4394.81,3884.49 4494.28,3710.32 4597.21,3665.52C4653.55,3641 4728.9,3640.55 4740.73,3682.24C4763.94,3763.96 4619.88,3794.82 4615.77,3931.29C4607.28,4213.08 5097.77,4406.99 5055.36,4936.78C5382.44,5155.47 5100.77,5962.12 4815.38,6211.54C4565.95,6429.55 4021.06,6755.78 3492.1,6374.25C3270.31,6214.28 3158.38,6023.04 3104.61,5831.91C3041.71,5608.38 3060.47,5378.68 3141.78,5137.78C3184.86,5010.15 3258.27,4862.47 3352.54,4732.93C3469.04,4572.84 3627.58,4420.09 3715.55,4254.59C3789.95,4114.63 3839.28,3992.48 3833.44,3853.72C3799.11,3884.6 3761.98,3903.44 3712.54,3917.19C3582.74,4125.39 3268.65,4321.33 3177.52,4140.85C3155.15,4147.32 3121.76,4168 3113.25,4190.6C3098.48,4229.85 3125.89,4257.95 3116.6,4283.25C3107.63,4307.68 3088.75,4331.19 3084.4,4355.43C3078.86,4386.26 3097.7,4407.43 3118.67,4429.68C3057.82,4438 3022.65,4411.83 3028.31,4346.91C2982.39,4369.33 2936.36,4405.55 2884.8,4454.6C2879.93,4420.29 2883.43,4383.07 2891.03,4352.96C2904.98,4297.72 2959.33,4275.7 2997.57,4228.21C3022.87,4196.79 3012.26,4153.62 3029.02,4122.7C3041.75,4099.22 3072.53,4083.56 3093.43,4076.55C3059.79,4056.13 3045.34,4018.53 3046.61,3975.66C2972.44,3854.33 3054.76,3732.18 3212.79,3604.84C3266.92,3446.23 3472.64,3352.78 3671.96,3363.9C3620.05,3257.5 3574,3149.09 3532.23,3039.2C3208.68,3045.97 2874.88,3098.9 2532.62,3189.89C2515.66,4021.94 2490.14,4853.79 2706.58,5489.43C2921.75,6121.32 3378.71,6524.12 4056.77,6891.86C4668.28,6548.31 5025.81,6143.99 5309.03,5731.73C5472.85,5493.27 5674.06,4023.02 5634.11,3180.3C5405.83,3092.85 5177.78,3007.7 4958.58,3010.85C4822.13,3012.8 4451.96,3121.8 4213.08,3233.99C4126.7,3274.56 4042.19,3322.44 3960.19,3380.21ZM3056.71,4173.3C3078.64,4184.56 3081.88,4161.12 3105.02,4140.46C3138.22,4110.81 3207.44,4090.71 3185.16,4087.65C3170.54,4085.64 3084.39,4099.6 3062.78,4121.6C3051.03,4133.57 3036.24,4162.78 3056.71,4173.3ZM2910.91,4397.95C2911.03,4379.17 2916.59,4361.23 2926.26,4343.94C2935.78,4326.91 2966.22,4303.57 2989.45,4279.98C3015.83,4253.19 3024.12,4238.84 3029.67,4241.42C3033.47,4243.19 3018.97,4269.06 3023.85,4276.37C3032.95,4290.03 3062.25,4270.1 3065.15,4274.94C3069.73,4282.59 3064.24,4289.03 3044.41,4301.9C3016.28,4320.14 2968.85,4337.44 2951.65,4352.23C2933.72,4367.66 2921.57,4383.12 2910.91,4397.95ZM3140.31,4016.57C3132.74,4032.08 3126.96,4048.14 3130.66,4067.13C3145.47,4065.51 3159.82,4062.14 3173.77,4057.31C3174.58,4041.21 3180.38,4026.24 3188.3,4011.74C3172.7,4015.63 3156.83,4017.91 3140.31,4016.57ZM3112.34,3994.53C3108.98,4015.54 3103.81,4031.99 3105.23,4056.7C3082.98,4047.91 3069.41,4028.02 3074.4,3980.58C3088.22,3986.43 3098.8,3988.12 3112.34,3994.53ZM3219.35,3992.69C3232.23,4012.98 3238.05,4037.45 3240.41,4056.74C3258.2,4031.68 3261.51,4006.22 3256.78,3977.8C3242.67,3982.85 3234.55,3987.15 3219.35,3992.69ZM3211.13,4026.83C3220.49,4029.09 3218.68,4059.05 3203.55,4062.8C3189.6,4066.26 3201.32,4024.46 3211.13,4026.83ZM3295.36,4042.43C3279.22,4053.31 3257.43,4083.22 3269.43,4083.38C3289.34,4083.64 3307.36,4077.97 3325.26,4067.82C3332.67,4063.62 3304.86,4036.03 3295.36,4042.43ZM3277.8,3967.45C3281.5,3985.86 3281.34,4003.78 3278.71,4021.38C3298.23,4005.89 3305.84,3983.06 3310.42,3958.36C3299.47,3955.98 3288.6,3959.94 3277.8,3967.45ZM3439.51,4677.55C3403.18,4718.56 3372.02,4762.55 3347.28,4810.24C3380.76,4815.86 3401.7,4831.28 3411.24,4855.61C3386.8,4844.65 3361.87,4835.18 3335.67,4829.63C3322.37,4847.4 3310.83,4866.98 3300.42,4887.73C3342.34,4894.48 3363.62,4911.86 3369.21,4937.34C3342.3,4920.98 3315.47,4908.83 3288.81,4907.16C3275.21,4929.34 3263.49,4951.6 3254.01,4973.98C3288.13,4976 3307.87,4991.11 3316.42,5016.41C3290.56,5003.75 3265.57,4994.62 3243.05,4995.54C3222.06,5033.25 3206.05,5072.59 3192.58,5112.77C3212.76,5122.53 3228.82,5134.2 3238.24,5148.94C3220.5,5142.11 3201.85,5137.09 3181.84,5134.78C3169.51,5170.59 3161.15,5202.29 3154.72,5231.97C3185.14,5231.49 3204.04,5243.44 3212.77,5266.38C3188.38,5256.87 3165.28,5252.29 3144.53,5256.73C3137.27,5285.53 3132.57,5315.16 3129.83,5345.44C3161.58,5344.7 3185.59,5355.81 3202.34,5378.02C3175.71,5371.15 3149.44,5366.23 3124.99,5371.32C3121.8,5402.01 3119.41,5432.19 3119.06,5461.1C3148.47,5459.58 3173.43,5465.47 3192.7,5480.83C3163.83,5474.74 3138.32,5480.17 3115.61,5485.61C3115.09,5511.34 3115.52,5537.61 3117.67,5564.86C3153.9,5566.69 3179.43,5573.45 3186.59,5588.69C3164.44,5586.33 3140.74,5586.86 3116.27,5588.82C3117.6,5637.81 3121.94,5682.9 3128.69,5724.91C3164.23,5718.55 3189.67,5720.89 3200.35,5735.96C3177.63,5738.62 3154.66,5743.14 3131.37,5750.03C3135.75,5782.74 3143.55,5810.81 3152.23,5837.7C3184.26,5834.86 3209.22,5837.61 3225.72,5847.03C3203.72,5851.61 3181.34,5856.62 3157.99,5862.72C3165.42,5901.49 3181.44,5935.64 3199.29,5968.8C3224.98,5957.23 3251.15,5956.16 3277.62,5961.79C3254.97,5971.24 3233.32,5981.26 3213.25,5992.17C3226.24,6023.61 3242.16,6050.51 3260.8,6073.2C3289.48,6053.94 3313.95,6048.11 3335.15,6052.73C3313.88,6064.97 3294.25,6078.37 3278.36,6094.42C3310.29,6141.84 3345.85,6183.22 3389.02,6211.9C3357,6136.36 3391.49,6081.43 3408.89,6104.08C3495,6216.22 3597.28,6289.78 3704.64,6332.04C4233.43,6540.19 4656.31,6272.01 4877.75,5999.85C5094.38,5733.6 5149.23,5387.89 5100.07,5214.76C5087.69,5171.15 5051.27,5171.32 5034.91,5201.53C4959.99,5339.86 4873.3,5451.62 4759.67,5502.61C4720.75,5623.5 4678.53,5727.44 4615.34,5802.82C4513.98,5923.72 4378.12,5982.89 4261.75,6009.08C4133.69,6037.89 3953.18,6054.25 3786.96,5986.26C3635.44,5924.29 3507.58,5767.47 3473.85,5626.28C3433.69,5458.17 3466.9,5303.19 3511.18,5170.08C3669.09,4695.45 4151.57,4382.86 4170.73,3925.08C4171.58,3904.54 4187.02,3908.61 4190.35,3893.56C4201.44,3843.35 4187.41,3735.26 4157.05,3671.54C4132.99,3621.03 4121.61,3580.54 4136.35,3560.66C4020.19,3416.66 3876.15,3373.06 3716.53,3385.6C3758.51,3417.21 3770.21,3454.88 3748.8,3499.18C3744.83,3468.62 3729.34,3445.35 3709.48,3425.33C3692.68,3408.39 3668.78,3400.06 3657.79,3398.62C3594.97,3390.43 3546.11,3395.52 3492.23,3412.73C3390.91,3445.1 3254.18,3532.4 3235.86,3620.63C3162.86,3680.99 3092.21,3742.73 3064.35,3816.83C3050.34,3854.07 3028.54,3906.56 3059.89,3939.31C3079.88,3960.2 3101.69,3972.11 3124.95,3976.95C3184.12,3989.26 3260.67,3934.89 3338.69,3928.93C3381.12,3925.68 3414.59,3928.16 3450.09,3918.05C3478.97,3909.83 3539.19,3858.78 3596.79,3850.83C3581.73,3865.11 3555.79,3881.19 3541.64,3898.1C3489.96,3959.83 3447.86,4015.67 3392.53,4051.55C3346.5,4081.39 3296.78,4110.11 3249.1,4103.4C3235.07,4109.02 3220.6,4116.94 3212.85,4130.21C3298.65,4181.64 3409.77,4100.15 3480.35,4057.7C3533.05,4026.01 3585.09,3978.45 3620.22,3926.84C3647.51,3886.76 3660.16,3846.09 3683.17,3811.14C3701.32,3783.58 3728.26,3784.64 3728.57,3816.84C3728.85,3846.41 3829.33,3748.89 3828.33,3714.8C3827.92,3700.78 3819.26,3682.31 3801.88,3669.91C3753.94,3635.72 3773.3,3607.49 3818.86,3617.76C3893.49,3634.6 3979.7,3700.8 3992.3,3820.11C4007.43,3836.47 4018.32,3855.01 4019.04,3878.74C4008.83,3868.42 3998.01,3862.55 3986.69,3860.36C3982.36,3915.45 3960.01,3958.75 3922.97,3992.45L3902.06,3973.03C3894.47,3995.87 3882.43,4003.82 3858.19,4002.73L3856.13,4023.89C3896.89,4030.49 3922.28,4032.74 3960.18,4031.66C3933.31,4051.14 3888.16,4053.02 3854.37,4046.42C3849.75,4069.68 3843.07,4090.61 3836.14,4110.22C3879.61,4110.39 3921.94,4121.18 3935.84,4162.77C3902.64,4138.9 3862.63,4122 3822.95,4137.29C3813.74,4154.84 3804.93,4174.43 3796.71,4196.92C3839.13,4204.88 3862.43,4216.52 3871.34,4249.36C3848.26,4229.92 3820.56,4217.14 3782.99,4218.58C3775.73,4231.09 3769.21,4242.35 3763.84,4251.66C3809.31,4255.68 3833.5,4273.1 3844.19,4302.39C3817.77,4285.51 3788.74,4273.55 3752.42,4273.61C3737.79,4287.26 3725.33,4303.55 3716.18,4323.89C3757.25,4334.9 3783.45,4357.58 3798.77,4388.38C3769.31,4369.37 3738.04,4352.94 3701.43,4343.7C3690.37,4356.18 3680.03,4370.38 3670.23,4385.91C3705.86,4404.53 3731.09,4427.86 3738.48,4459.3C3711.59,4437.66 3683.73,4419.18 3652.76,4410.78C3637.05,4432.71 3621.01,4453.68 3604.69,4473.9C3633.12,4490.71 3655.85,4505.96 3669.81,4533.47C3645.12,4518.31 3621.58,4503.37 3590.24,4491.42C3565.66,4515.93 3541.05,4544.05 3516.39,4576.15C3551.8,4594.26 3577.75,4622.59 3590.27,4645.47C3567.22,4627.8 3536.32,4605.03 3499.1,4597.09L3451.51,4657.16C3484.1,4664.79 3507.74,4681.93 3515.58,4715.8C3493.09,4698.23 3468.82,4683.64 3439.51,4677.55ZM4985.1,4729.44C4967.52,4719.98 4948.43,4719.76 4928.73,4723.29C4940.97,4709.75 4956.66,4702.47 4975.39,4700.71C4968.52,4672.26 4959.61,4646.5 4947.49,4624.95C4929.23,4620.79 4909.02,4620.01 4887.4,4621.72C4898.54,4606.7 4916.72,4599.35 4937.2,4594.5C4924.2,4567.19 4909.5,4540.21 4892.03,4513.8C4869.95,4512.95 4848.18,4517.17 4826.62,4524.93C4838.96,4506.91 4855.67,4496.1 4873.92,4487.81C4858.92,4463.48 4842.53,4440.39 4823.98,4419.23C4806.96,4418.46 4790.26,4421.18 4773.99,4428.78C4780.92,4412.81 4792.97,4401.58 4808.39,4393.47C4793.85,4371.99 4778.06,4350.96 4760.69,4330.48C4745.35,4325.32 4731.77,4325.42 4719.36,4329.06C4723.8,4317.43 4729.88,4308.57 4737.55,4302.4C4715.6,4271.13 4693.86,4241.75 4672.23,4213.33L4638.82,4218.4C4644.08,4207.46 4650.87,4197.03 4658.5,4186.88C4647.94,4168.74 4637.06,4150.91 4625.91,4133.35C4614.39,4135.11 4602.3,4138.17 4589.67,4142.5C4598.15,4128.34 4606.53,4116.79 4614.88,4106.51C4611.1,4097.96 4605.53,4089.66 4597.59,4081.7C4584.9,4080.6 4572.99,4082.5 4561.58,4086.33C4567.64,4073.17 4576.24,4063.41 4586.16,4055.4C4582.22,4043.94 4577.39,4032.67 4571.54,4021.57C4558.48,4018.79 4545.14,4018.02 4531.58,4019.02C4541.74,4007.13 4554.52,3999.81 4569.55,3996.41C4570.61,3975.23 4571.21,3956.21 4571.53,3938.46C4561.25,3932.22 4546.39,3927.14 4528.97,3922.7C4542.12,3916.91 4556.45,3913.43 4574.46,3917.13C4575.34,3878.28 4584.57,3848.31 4596.19,3817.17C4619.7,3754.16 4666.93,3757.98 4691.94,3730.18C4703.67,3717.14 4705.19,3699.52 4699.92,3688.67C4673.17,3633.64 4531.54,3733.16 4498.93,3792.44C4473.48,3838.7 4449.67,3891.76 4444.07,3957.86C4436.12,4051.85 4452.98,4138.14 4494.75,4235.43C4564.88,4398.76 4664.95,4560.07 4729.3,4739.52C4821.49,4996.65 4556.45,5219.63 4366.28,5254.44C4284.88,5269.34 4127.29,5293.62 4074.49,5196.68C3996.98,5054.38 4252.82,4901.88 4410.83,4896.91C4486.78,4894.52 4572.5,4918.82 4670.53,4981.51C4704.71,4914.65 4711.4,4841.68 4696.89,4763.98C4659.28,4748.78 4618.09,4737.7 4574.67,4729.19C4573.75,4758.72 4563.95,4782.56 4547.76,4802.32C4547.79,4775.54 4545.35,4750.53 4539.65,4727.89C4521.58,4724.46 4504.03,4722.67 4486.71,4721.59C4482.39,4744.37 4474.77,4766.75 4462.7,4788.6C4461.71,4764.38 4457.93,4740.81 4449.84,4718.25C4057.21,4705.24 3772.79,4974.06 3768.2,5164.23C3767.06,5211.33 3755.76,5255.26 3783.95,5309.82C3805.54,5311.19 3823.98,5314.6 3839.27,5320.03L3793.76,5346.77C3801.21,5370.54 3810.79,5392.39 3822.25,5412.55C3839.54,5402.5 3856.39,5398.44 3872.79,5400.36C3859.01,5413.61 3848.21,5426.74 3840.38,5439.76C3855.02,5464.24 3871.12,5485.77 3889.09,5503.54C3897.33,5480.9 3916.63,5469.11 3943.02,5464.28C3926.25,5483.31 3912.39,5503.35 3909.1,5527.03C3928.19,5542.3 3947.64,5558.19 3967.42,5574.62C3973.27,5551.17 3988.04,5537.35 4006.23,5527.22C3995.99,5545.69 3990.92,5567.02 3994.83,5584.5C4020.37,5597.62 4043.01,5607.71 4063.96,5616C4057.92,5595.23 4074.05,5576.11 4097.75,5557.55C4087.23,5582.98 4085.6,5604.29 4091.56,5622.07C4117.81,5626.11 4141.68,5631 4164.2,5636.4C4166.03,5612.86 4177.36,5594.86 4192.15,5576.33C4190.11,5597.73 4189.53,5617.56 4191.07,5635.1C4220.41,5639.09 4248.11,5639.22 4274.18,5635.56C4270.09,5609.04 4277.15,5587.3 4295.34,5570.34C4295.81,5586.93 4297.62,5608.2 4304.38,5628.06C4329.9,5622.4 4355.08,5616.29 4379.96,5609.75C4376.45,5589.15 4376.74,5569.84 4380.86,5551.84C4389.63,5569.24 4399.5,5588.96 4411.04,5602.94C4431.34,5596.81 4451.47,5589.51 4471.37,5580.64C4465.75,5557.01 4465.91,5536.45 4471.18,5518.59C4481.28,5533.34 4491.5,5548.24 4501.95,5563.49C4523.53,5552.46 4544.51,5543.73 4565.05,5536.79C4557.27,5519.36 4553.77,5501.35 4554.17,5482.81C4564.83,5496.46 4577.1,5508.94 4592.22,5519.33C4613.82,5509.52 4625.66,5496.32 4642.97,5484.59C4633.89,5467.19 4626.71,5450.21 4622.74,5433.92C4636.6,5444.63 4651.23,5453.59 4666.42,5461.25C4693.59,5447.23 4716.79,5429.36 4738.09,5409.65C4727.07,5391.76 4720.87,5372.72 4718.27,5352.82C4733.08,5365.91 4745.41,5375.95 4764.29,5386.31C4794.66,5365.75 4817.84,5335.43 4840.84,5301.73C4824.41,5282.05 4814.97,5261 4809.58,5239.15C4828.48,5253.74 4845.87,5265.31 4861.53,5273.44C4875.98,5255.73 4887.16,5237.47 4896.94,5218.98C4881.66,5204.63 4870.36,5188.34 4862.89,5170.2C4880.29,5180.15 4896.87,5188.21 4912.85,5194.88C4943.54,5148.91 4965.35,5100.2 4980.69,5049.49C4967.4,5033 4949.69,5023.65 4927.9,5020.91C4947.39,5010.28 4967.76,5008.41 4989.12,5016.47C5005.31,4983.56 5012.01,4947.15 5011.95,4908.24C4993.42,4899.53 4973.25,4896.06 4952.12,4895.67C4970.64,4880.85 4990.69,4872.72 5012.39,4871.84C5012.97,4852.7 5011.24,4833.47 5005.41,4814.09C4983.51,4804.85 4961.46,4800.05 4939.32,4798.19C4956.28,4788 4973.76,4779.73 4992.65,4776.8C4991.02,4760.06 4988.48,4744.3 4985.1,4729.44ZM5063.61,6242.92L5170.32,6378.54C5108.45,6426.1 5043.82,6469.53 4975.66,6507.67C4960.32,6423.86 4990.89,6335.48 5063.61,6242.92ZM5459.3,6242.33C5459.3,6242.33 5455.47,6320.53 5426.56,6376.31C5384.73,6457.01 5278.7,6535.31 5236.53,6571.74C5184.49,6616.7 5124.22,6656.83 5056.04,6685C5028.37,6638.47 4999.21,6592.99 4962.17,6552.98C4953.83,6544.49 5081.22,6527.4 5206.91,6407.09C5290.33,6327.26 5404.55,6261.7 5459.3,6242.33ZM5508.97,6289.67C5609.52,6389.74 5674.89,6495.05 5766.73,6600.36C5821.26,6662.9 5895.62,6673.95 5951.18,6767.63C5979.06,6814.63 5832.43,7041.97 5561.43,7245.64C5144.74,7558.8 4603.64,7763.55 3950.37,7747.35C3363.85,7732.8 2428.39,7458.67 2013.79,6784.63C1987.4,6741.71 2182.29,6709.89 2335.13,6588.86C2418.88,6522.54 2497.82,6449.53 2570.05,6371.95C2649.39,6715.48 3486.95,7022.69 3964.58,7039.65C4507.48,7058.92 5491.69,6638.62 5508.97,6289.67ZM3102.14,6567.33C2910.48,6501.18 2698.74,6308.56 2646.49,6338.68C2551.94,6393.19 2779.99,6618.48 2980.49,6710.95C3005.21,6655.06 3054.8,6611.83 3102.14,6567.33ZM2854.07,6380.66C2985.35,6475.03 3123.88,6553.44 3176.39,6494.02C3220.52,6444.08 3116.23,6310.14 3008.23,6230.07C2991.61,6305.41 2949.98,6362.65 2854.07,6380.66ZM1261.91,6318.9C1268.92,6420.35 1367.6,6446.95 1409.02,6435.33C1474.55,6416.94 1540.43,6323.05 1454.83,6195.4C1414,6176.82 1376.28,6156.22 1342.3,6133.21C1209.7,6129.96 1093.46,6300.92 1187.53,6503.28C1329.46,6808.57 1797.21,6844.99 2090.14,6601.02C2410.14,6334.48 2445.73,5858.42 2202.19,5451.4L2102.78,5541.8C2329.89,5867.6 2181.95,6312.79 2017.98,6466.11C1907.48,6569.44 1669.04,6646.45 1451.22,6507.74C1322.79,6613.22 1189.32,6393.89 1261.91,6318.9ZM1973.55,6207.41C1979.6,6207.78 1978.74,6274.76 1974.68,6305.34C1972.14,6324.49 1956.04,6328.41 1938.14,6328.64C1875.11,6329.48 1851.89,6237 1751.65,6261.79C1638.06,6289.88 1666.15,6362.38 1674.82,6391.39C1691.59,6447.53 1849.81,6499.36 1991.07,6434.24C1942.38,6490.02 1825.07,6519.7 1752.4,6504.74C1688.53,6491.59 1595.43,6443.32 1581.58,6349.18C1574.89,6303.76 1604.37,6241.08 1660,6214.61C1733.76,6179.52 1830.61,6236.16 1913.85,6238.49C1951.56,6239.54 1941.05,6205.42 1973.55,6207.41ZM1943.22,6136.69C1923.77,6114.95 1893.13,6108.45 1851.31,6117.18C1861.3,6074.48 1964.73,6064.91 1943.22,6136.69ZM1991.59,5579.82C1891.35,5565.1 1826.82,5641.35 1875.9,5715.56C1893.75,5631.73 1937.51,5614.72 1991.64,5624.45C1945.79,5682.36 2004.06,5746.44 2038.92,5717.12C2162.79,5612.89 2040.38,5495.12 1994.97,5476.59C1940.14,5454.22 1777.4,5399.93 1704.02,5563.65C1684.19,5607.89 1678.43,5666.53 1700.74,5714.91C1767.22,5859.12 1944.13,5863.77 1870.3,6004.06C1924.4,6010.85 1932.15,5966.7 1923.18,5925.39C1919.34,5907.72 1903.43,5861.74 1884.88,5838.24C1843.49,5785.78 1783.86,5758.05 1771.38,5682.78C1734.04,5457.66 2002.18,5445.63 1991.59,5579.82ZM1964.49,5637.39C1872.72,5672.48 1883.92,5789.78 1984.26,5810.35C2022.86,5818.26 2104.64,5830.38 2162.11,5703.53C2156.27,5670.07 2143.1,5640.24 2116.26,5617.16C2104.01,5699.54 2054.13,5739.72 2014.69,5742.25C1978.21,5744.59 1951.43,5701.5 1964.49,5637.39ZM1176.07,5448.05C1203.73,5507.89 1228.22,5616.42 1274.4,5707.24C1310.23,5777.69 1362.98,5834.18 1412.01,5874.45C1561.22,5997 1763.91,6078.51 1862.96,6020.22C1672.38,5946.61 1716.11,5801.52 1614.86,5757.81C1571.32,5739.02 1523.06,5731.37 1468.41,5738.82C1505.92,5704.64 1554.18,5702.78 1610.37,5724.76C1573.19,5587.22 1464.76,5552.27 1324.81,5562.71C1326.32,5553.25 1332.65,5546.27 1342.52,5541.12C1295.43,5506.39 1238.47,5476.02 1176.07,5448.05ZM1469.85,5073.73C1620.54,4978.65 1723.08,5043.44 1761.87,5081.41C1792.21,5111.12 1829.55,5188.35 1750.06,5233.55C1694.79,5264.97 1639.25,5247.09 1611.57,5286.61C1579.5,5332.41 1570.82,5494.66 1712.47,5508.54C1681.45,5531.73 1657.65,5562.03 1651.22,5609.47C1590.3,5574.03 1535.61,5532.21 1510.99,5459.65C1306.55,5445 1290.13,5187.14 1469.85,5073.73ZM1613.01,5100.09C1633.03,5111.94 1628.73,5132.59 1611.05,5155.04C1585.52,5187.43 1540.76,5153.44 1484.65,5244.61C1474.85,5260.53 1479.6,5298.38 1493.25,5332.03C1510.41,5374.33 1543.98,5403.87 1524.28,5411.69C1484.38,5427.52 1438.19,5389.15 1416.02,5340.93C1397.96,5301.69 1399.39,5254.98 1404.11,5233.3C1416.51,5176.28 1524.28,5047.59 1613.01,5100.09ZM1982.05,5442.04C2020.01,5460.58 2055.73,5481.63 2083.89,5511.1C2168.47,5485.33 2221.6,5382.1 2242.46,5199.41C2281.44,5296.92 2296.16,5391.96 2256.75,5481.5C2292.15,5555.58 2325.62,5630.97 2355.48,5708.81C2394.28,5660.18 2404.84,5461.91 2366.89,5299.53C2349.74,5226.14 2308.14,5172.4 2280.13,5121.62C2242.18,5052.81 2204.46,5004.29 2195.8,4949.69C2186.99,4894.16 2220.22,4861.37 2223.32,4790.6C2225.14,4749.07 2214.18,4681.2 2170.75,4649.69C2178.41,4689.22 2181.36,4730.93 2180.69,4774.3C2179.64,4843.07 2152.64,4949.78 2154.64,4991.18C2121.23,4936.85 2068.23,4898.37 1994.34,4876.8C2071.5,4979.88 2135.42,5080.02 2128.1,5164.38C2124.02,5211.38 2099.04,5244.98 2039.54,5288.46C1998.36,5318.55 2030.22,5363.53 2080,5351.71C2062.61,5388.84 2033.11,5420.4 1982.05,5442.04ZM1839.58,4825.42C1878.66,4840.81 1920.41,4856.2 1964.77,4871.58C1997.51,4928.87 2097.4,5047.31 2101.8,5124.72C2103.63,5157.02 2094.99,5187.55 2071.76,5215.61C2017.89,5139.89 1963.12,5075.19 1922.91,5006.2C1887.38,4945.27 1859.41,4884.99 1839.58,4825.42ZM2347.74,5137.04L2388.57,5035.46C2365.26,5031.92 2342.28,5008.2 2344.26,4989.8C2350.29,4933.82 2356.95,4901.55 2355.72,4855.94C2354.05,4793.95 2333.04,4735.35 2313.1,4695.39C2268.14,4605.34 2151.88,4525.09 2121.21,4537.6C2137.68,4565.12 2158.29,4593.85 2161.86,4627.11C2202.08,4643.32 2228.81,4672.97 2241.03,4717.09C2245.85,4734.49 2248.44,4767.4 2244.39,4796.54C2235.79,4858.51 2211.79,4925.84 2218.15,4948.18C2245.2,5043.12 2287.9,5034.61 2315.92,5082.01C2325.07,5097.49 2340.16,5120.61 2347.74,5137.04ZM2090.4,4905.06C1953.45,4826.68 1782.22,4783.45 1724.71,4682.4C1641.97,4537.01 1622.19,4301.9 1624.01,4070.47C1654.21,4054.67 1673.27,4010.47 1690.98,3963.99C1697.89,4101.67 1677.25,4255.56 1690.04,4324.26C1722.09,4496.46 1794.48,4602.37 1870.89,4654.98C1917.17,4686.84 1965.26,4709.93 2011.23,4701.96C2032.47,4698.28 2051.54,4682.8 2069.78,4665.94C2082.71,4714.18 2073.67,4768.65 2077.83,4815.29C2080.58,4846.13 2084.53,4876.21 2090.4,4905.06ZM2029.52,4630.72C2050.06,4562.91 1741.88,4385.96 1711.39,4290.05C1743.55,4538.08 1913.47,4659.26 1977.91,4670.25C1998.64,4673.79 2019.72,4663.09 2029.52,4630.72ZM2247.37,3999.25C2241.28,4028.46 2232.49,4061.72 2221.34,4098.5C2148.73,3988.28 2080.46,4016.62 2061.42,4037.77C2049.51,4050.99 2035.72,4079.12 2037.54,4116.69C2040.57,4179.17 2113.29,4183.42 2141.85,4235.03C2155.01,4258.83 2132.51,4296.73 2115.61,4305C2088.31,4318.37 1974.59,4287.42 1935.83,4164.53C1919.67,4113.29 1915.5,4057.95 1912.54,4000.87C1907.56,3904.74 1959.5,3824.7 1921.05,3700.11C1908.08,3703.21 1890.39,3704.47 1867.14,3693.22C1834.53,3677.43 1793.14,3646.39 1757.41,3643.46C1729.78,3641.19 1662.52,3693.12 1615.53,3681.69C1599.23,3677.72 1593.13,3666.94 1603.01,3641.84C1507.73,3717.5 1436.59,3823.01 1411.66,3943.01C1393.2,4031.9 1399.73,4133.4 1439.43,4251.66C1458.19,4198.12 1480.96,4156.8 1506.97,4125.35C1532.98,4093.9 1562.22,4072.31 1593.93,4058.21C1630.16,4042.1 1562.24,3900.57 1624.66,3784.1C1650.08,3736.67 1678.4,3704.81 1726.98,3710.48C1801.63,3719.19 1824.8,3866.28 1806.45,3958.84C1839.15,3984.97 1875.13,4045.68 1889.85,4113.62C1908.42,4199.28 1902.36,4294.35 1915.95,4322.75C1929.1,4350.24 2018.76,4405.12 2071.21,4465.7C2166.34,4502.63 2308.08,4402.83 2347.5,4324.05C2385.79,4247.53 2415.9,4115.06 2335.71,4007.72C2303.47,4007.53 2273.54,4005.16 2247.37,3999.25ZM1613.13,4603.68C1603.74,4603.35 1588.87,4602.95 1576.75,4600.31C1563.7,4597.45 1544.15,4581.75 1537.76,4585.37C1528.68,4590.52 1589.66,4712.06 1625.33,4773.77C1651.66,4819.34 1709.89,4913.88 1721.26,4907.65C1730.86,4902.4 1730.24,4881.95 1738.86,4879.14C1746.63,4876.6 1757.51,4895.24 1768.99,4888.07C1777.95,4882.48 1709.11,4791.5 1683.07,4744.47C1649.67,4684.17 1621.77,4603.98 1613.13,4603.68ZM1413.99,4984.07C1575.89,4920.53 1598.74,4746.14 1484.59,4671.69C1527.58,4793.82 1472.11,4884.91 1416.36,4909.23C1377.63,4926.12 1288.27,4951.49 1250.38,4879.54C1221.65,4824.99 1313,4771.61 1362.55,4831.55C1391.74,4866.85 1436.31,4812.63 1400.97,4750.91C1379.5,4713.39 1219.58,4716.64 1177.12,4788.23C1162.89,4812.22 1150.18,4840.69 1152.8,4884.62C1159.02,4988.96 1309.42,5025.1 1413.99,4984.07ZM1228.2,4006.54C1263.83,3886.03 1306.83,3862.37 1345.91,3807.1C1368.39,3775.3 1395.12,3759.87 1415.48,3737.86C1436.54,3715.08 1450.94,3686.01 1456.2,3669.54C1464.58,3643.32 1443.52,3628.29 1426.01,3641.35C1268.13,3759.13 1153.86,3960.68 1136.33,4167.98C1132.51,4213.13 1136.39,4270.61 1143.38,4320.51C1161.3,4448.51 1244.71,4577.95 1235.3,4711.08C1282.41,4711.23 1339.68,4711.12 1386.33,4709.04C1395.52,4640.09 1306.94,4500.31 1251.12,4369.05C1227.67,4313.88 1214.56,4256.11 1209.59,4212.36C1201.09,4137.57 1209.56,4069.58 1228.2,4006.54ZM1404.95,3856.05C1282.64,3932.97 1238.94,4102.01 1262.83,4210.27C1284.83,4309.96 1360.51,4402.95 1531.53,4481.44C1513.7,4358.42 1516.18,4243.31 1537.69,4135.61C1504.31,4154.64 1471.67,4178.07 1456.88,4306.22C1369.94,4228.11 1335.81,4021.62 1404.95,3856.05ZM1629.07,3917.86C1613.15,3846.17 1653.64,3749.15 1687.02,3758.26C1737.66,3772.07 1673.97,3870.21 1629.07,3917.86ZM1879.78,4276.94C1871.94,4202.65 1873.02,4145.92 1857.19,4093.72C1846.55,4058.63 1831.82,4027.9 1812.32,4002.27C1825.81,4071.92 1817.18,4118.17 1831.02,4169.44C1841.59,4208.6 1857.3,4244.75 1879.78,4276.94ZM1953.46,3952.23C1939.33,3947.11 1925.35,4046.36 1948.9,4134.22C1967.87,4204.96 2050.73,4305.25 2063.08,4277.16C2068.52,4264.78 2006.32,4230.65 1977.69,4140.07C1949.55,4051.06 1973.87,3959.63 1953.46,3952.23ZM2074.39,4216.32C2074.76,4222.42 2085.54,4227.29 2093.43,4236.42C2102,4246.33 2103.87,4259.56 2112.68,4254.35C2118.59,4250.85 2115.23,4228.44 2105.47,4218.1C2094.29,4206.25 2073.55,4202.34 2074.39,4216.32ZM2235.12,3822.51C2237.35,3773.75 2264.94,3746.1 2287.91,3733.21C2314.9,3718.08 2348.95,3725.16 2388.87,3750.65C2473.27,3804.54 2419.24,3930.71 2359.25,3949.1C2272.2,3975.77 2216.96,3963.33 2155.99,3901.45C2115.52,3860.39 2081.34,3742.62 2100.32,3643.88C2113.01,3577.88 2148.52,3491.95 2189.64,3426.95C2223.09,3374.09 2262.83,3340.23 2282.48,3304.06C2350.85,3178.2 2425.62,3085.24 2510.79,2999.09L2563.23,3004.32C2456.24,3110.61 2388.44,3223.21 2326.12,3325.96C2307.39,3356.86 2285.33,3363.03 2266.58,3390.86C2244.32,3423.92 2226.34,3478.33 2215.72,3512.56C2181.6,3622.5 2182.33,3726.59 2235.12,3822.51ZM2297.52,3388.41C2234.67,3490.65 2200.93,3608.64 2225.6,3758.23C2236.94,3738.65 2247.88,3723.34 2258.48,3711.47C2244.43,3588.81 2261.23,3483.22 2297.52,3388.41ZM1987.81,3574.77C1967.14,3575.74 1954.63,3589.06 1949.14,3612.99C1941.46,3646.46 1971.26,3711.62 1967.74,3777.04C1985.31,3713.41 2007.57,3683.79 2013.84,3646.41C2019.88,3610.48 2012.01,3573.63 1987.81,3574.77ZM2173.53,3396.05C2079.46,3436.34 1999.79,3442.66 1947.83,3383.69C1830.91,3419.51 1724.86,3465.43 1613.36,3432.78C1554.12,3415.43 1489.58,3370.88 1430.34,3307.83C1388.04,3291.98 1353.05,3282.93 1317.7,3261.68C1289.43,3244.7 1264.32,3225.26 1243.88,3202.19C1261.61,3270.55 1300.54,3329.3 1366.13,3377.98C1440.76,3433.37 1551.85,3447.11 1614.59,3475.16C1629.31,3481.74 1642.68,3501.39 1657.19,3516.16C1768.24,3522.05 1872.22,3501.24 1969.58,3455.48C2071.8,3477.17 2127.19,3442.1 2173.53,3396.05ZM1239.38,3162.92C1276.13,3214.84 1366.24,3154.44 1387.2,3121.08C1411.29,3082.73 1442.52,3008.77 1366.92,2940.34C1284.85,2866.05 1165.54,2935.42 1136.32,2979.25C1089.24,3049.84 1009.92,3246.57 1368.54,3464.69C1379.52,3524.94 1459.63,3519.99 1537.8,3516.87C1223.77,3397.29 1175.39,3253.43 1157.83,3132.8C1150.64,3083.36 1164.06,3045 1208.91,2999.11C1247.03,2960.12 1314.78,2980.55 1321.58,3004.67C1341.34,3074.82 1215.72,3129.48 1239.38,3162.92ZM1295.63,3209.81C1335.66,3198.23 1373.06,3178.3 1408.42,3151.92C1472.91,3209.01 1546.26,3222.65 1623.34,3217.92C1545.6,3303.63 1384.34,3314.17 1295.63,3209.81ZM1444.07,2965.29C1459.35,3020.04 1454.88,3070.75 1432.01,3117.69C1490.03,3161.87 1545.31,3182.88 1605.81,3182.58C1655.06,3182.34 1692.01,3158.77 1758.23,3141.81C1804.6,3129.93 1872.06,3146.3 1914.54,3139.6C1940.41,3135.53 1953.75,3118.36 1956.88,3094.18C1965.56,3027.09 1820.69,3121.01 1708.31,3115.99C1608.83,3111.55 1515.93,3008.24 1444.07,2965.29ZM1438.43,2876.6C1431.98,2794.7 1442.1,2740.3 1463.72,2704.99C1484.7,2670.71 1516.53,2654.42 1554.55,2648.42C1601.32,2641.05 1552.97,2746.91 1556.62,2848.13C1558.85,2910.07 1606.07,2974.79 1631.7,2997.49C1673.01,3034.07 1732.5,3046.04 1814.84,3027.08C1696.55,2995.11 1622.94,2909.86 1659.73,2789.16C1692.95,2680.18 1857.71,2531.78 1954.29,2651.26C1971.7,2672.79 1861.57,2667.23 1839.72,2753.94C1816.84,2844.72 1909.23,2901.25 1962.73,2873C2028.15,2838.47 2118.96,2742.62 2025.03,2599.04C1927.77,2450.36 1675.96,2467.44 1572.1,2506.89C1460.07,2549.44 1337.72,2738.03 1438.43,2876.6ZM2075.57,2615.13L2167.28,2711.8C2150.17,2828.88 2064.48,2923.55 2005.53,2947.51C1846.06,3012.31 1728.06,2876.9 1802.97,2799.01C1831.77,2983.03 1989.09,2909.11 2037.27,2862.17C2074.8,2825.6 2145.13,2742.1 2075.57,2615.13M2196.07,2740.16C2206.12,2853.9 2136.38,2955.5 2002.66,3012.21L2049.4,3041.66L1995.03,3085.58C2009.38,3112.88 1992.8,3124.24 1966.44,3145.01C1913.24,3186.96 1819.71,3154.15 1751.72,3171.73C1687.39,3188.37 1641.54,3272.72 1545.58,3320.09C1656.79,3367.54 1801.88,3301.48 1922.56,3233.71C2054.66,3159.53 2198.66,3056.6 2302.27,2881.22L2196.07,2740.16ZM2158.61,2648.1C2104.65,2537.23 2081.37,2434.48 2085.65,2339.02C2090.03,2241.19 2123.36,2151.02 2182.25,2067.61C2158.36,2080.83 2133.85,2093.15 2106.72,2101.71C2035.03,2187.13 2001.61,2309.96 2015.34,2410.96C2026.33,2491.74 2063.49,2583.31 2158.61,2648.1ZM2265.35,2079.85C2287.05,1993.28 2258.35,1942.35 2227.84,1919.53C2204.58,1902.12 2138.5,1898.37 2114.29,1942.06C2086.3,1992.57 2144.42,2030.64 2191.75,1985.1C2205.42,2039.14 2143.14,2110.16 2067.47,2060.16C2022.29,2030.32 2028.5,1964.1 2059.14,1914.16C2085.39,1871.38 2130.47,1851.76 2175,1847.88C2205.2,1845.25 2243.71,1853.94 2266.29,1879.74C2295.66,1913.31 2317.12,1964.2 2314.41,2029.9L2265.35,2079.85ZM3045.45,2000.96C2987.06,2038.37 2858.09,1896.19 2679.33,1910.82C2615.89,1916.01 2526.91,1934.74 2472.16,1957.95C2227.57,2061.66 2151.09,2354.83 2177.7,2527.62C2203.27,2693.61 2325.61,2909.55 2610.24,2977.12C2441.41,2877.5 2336.64,2756.14 2335.77,2599.54C2485.51,3034.18 2991.6,2949.85 3227.35,2769.78C3371.61,2659.59 3609.97,2404.46 3624.79,2269.56C3603.95,2272.04 3583.17,2273.51 3562.59,2271.15C3418.67,2572.8 3153.56,2716.24 2962.73,2758C2806.11,2792.27 2473.55,2777.13 2544.18,2465.9C2568.33,2359.49 2734.26,2303.4 2742.28,2393.47C2745.55,2430.25 2714.14,2380.59 2691.74,2390.95C2675.05,2398.67 2665.04,2416.64 2672.62,2444.28C2686.97,2496.59 2768.03,2495.88 2812.37,2382.91C2854.24,2472.83 2778.48,2547.32 2719.76,2551.99C2682.95,2554.92 2608.61,2564.99 2561.76,2500.23C2586.3,2622.84 2698.33,2610.57 2759.85,2585.01C2811.16,2563.7 2856.97,2522.6 2893.46,2425.33C2923.88,2344.23 2878,2243.02 2808.3,2193.45C2741.34,2145.84 2652.15,2150.34 2612.08,2154.46C2551.47,2160.68 2463.7,2214.26 2420.86,2331.77C2402,2383.49 2393.51,2444.8 2397.43,2523C2325.39,2319.13 2386.38,2213.55 2474.84,2130.71C2514.3,2093.75 2613.82,2041.98 2692.85,2048.65C2832.37,2060.43 2911.9,2166.76 3085.91,2055.52C3129.16,2027.87 3155.75,1973.84 3151.59,1931.9C3148.15,1897.28 3120.3,1863.8 3081.9,1860.86C2995.19,1854.21 2978.64,1918.86 2984.29,1947.72C2990.38,1978.81 3008.17,1995.59 3045.45,2000.96ZM2032.31,3311.82C2147.88,3270.93 2247.2,3197.18 2230.41,3152.37C2223.9,3135.01 2203.57,3130.26 2185.16,3137.67C2159.1,3148.16 2133.17,3190.45 2095.37,3240.34C2077.7,3263.66 2060.47,3284.84 2032.31,3311.82ZM2631.14,3009.49C2583.25,3056.23 2537.15,3103.79 2508.05,3159.16C2672.14,3107.49 2773.59,3085.18 2913.22,3065.2C3023.66,3049.41 3130.5,3031.51 3243.72,3017.32C3312.48,2972.78 3358.68,2900.26 3389.77,2833.03C3410.86,2787.42 3422.63,2738.74 3422.59,2686.17C3241.12,2882.8 3092.2,2959.9 2917.12,3006.24C2824.36,3030.79 2757.68,3027.36 2631.14,3009.49ZM3027.1,2928.95C2940.91,2950.6 2854.23,2976.6 2769.39,2970.62C2739.4,2968.51 2744.39,2996.62 2763.86,2997.39C2864.16,3001.36 2952.78,2972.53 3034.27,2948.85C3051.9,2943.73 3041.67,2925.29 3027.1,2928.95ZM3360.57,2929.5C3334.92,2959.79 3313.77,2977.25 3281.66,3007.69C3316.02,2995.87 3351.32,2970.63 3387.06,2939.01C3392.97,2933.78 3377.14,2909.92 3360.57,2929.5ZM3340.74,3001.07C3435.66,2932.51 3520.6,2858.13 3591.32,2775.44C3645.2,2712.42 3690.83,2644.57 3726.31,2570.8C3726.51,2639.45 3683.34,2731.55 3553.87,2870.31C3543.03,2881.93 3554.39,2945.17 3553.63,2983.33C3485.69,2986.41 3415.63,2991.48 3340.74,3001.07ZM3802.36,2791.09C3783,2847.18 3775.35,2899.02 3781.11,2948.39C3866.31,2901.96 3952.57,2915.88 3957.39,2974.17C3962.63,3037.41 3904.81,3064.58 3883.87,3075.91C3857.22,3090.31 3800,3079.91 3818.3,3028.04L3779.63,3043.47C3763.74,3120.28 3763.86,3193.37 3780.52,3270.79C3886.46,3216.09 3989.34,3170.28 4090.03,3130.97C4213.42,3082.79 4333.51,3044.35 4451.91,3011.24C4322.93,2893.78 4244.33,2768.92 4210.89,2637.42C4118.33,2656.42 3998.67,2722.33 3881.66,2788.43C4019.49,2676.3 4185.43,2613.71 4315.34,2589.16C4353.08,2582.03 4383.95,2587.29 4387.7,2597.83C4396.27,2621.96 4346.57,2632.24 4346.77,2646.7C4346.89,2655.42 4389.99,2657.44 4404.15,2669.55C4424.81,2687.22 4406.66,2711.78 4424.46,2718C4436.67,2722.27 4461.96,2721.25 4473,2731.95C4501.42,2759.5 4479.85,2787.23 4485.86,2791.86C4567.9,2855.08 4639.19,2917.64 4670.85,2977.82C4521.86,3004.68 4379.58,3045.96 4241.51,3095.76C4076.38,3155.33 3917.27,3227.1 3759.95,3301.03C3742.19,3215 3733.78,3125.45 3757.72,3023.7C3786.7,2995.08 3820.07,2993.23 3845.93,2996.65C3838.27,3017.06 3841.92,3041.56 3850.22,3045.12C3887.02,3060.9 3932.02,3014.35 3929.78,2983.02C3928.67,2967.51 3900.71,2949.89 3870.52,2948.88C3839.7,2947.85 3806.23,2963.73 3764.98,2979.05C3753.89,2922.08 3762.06,2857.72 3780.36,2789.47C3745.23,2833.59 3736.41,2896.83 3729.9,2955.77C3689.11,2926.79 3638.92,2912.19 3634.13,2942.93C3626.48,2992.04 3676.55,2981.28 3691.18,2990.72C3704.38,2999.24 3712.12,3018.63 3710.78,3037.25C3709.02,3061.8 3710.09,3176.16 3704.47,3250.86C3648.87,3178.07 3603.65,3096.43 3575.79,3000.02C3566.38,3106.06 3628.97,3240.78 3742.62,3358.72C3918.56,3270.49 4090.78,3195.09 4258.58,3137.76C4431.3,3078.74 4607.14,3029.22 4770.27,2996.29C4643.4,2875.37 4525.54,2745.89 4434.18,2609.94C4369.28,2513.38 4344.25,2405.39 4332.78,2320.41C4326.66,2275.03 4288.59,2130.3 4305.21,2094.55C4310.57,2083.01 4316.98,2078.88 4324.56,2080.32C4339.1,2083.09 4361.35,2110.25 4385.62,2141.12L4384.72,2051.01C4365.19,2052.59 4345.6,2052.92 4325.83,2050C4317.31,2048.74 4348.08,2045.14 4372.55,2038.03C4398.51,2030.49 4418.76,2019.09 4427.25,2005.7C4432.72,1997.06 4433.9,1986.76 4429.47,1974.31C4422.83,1955.63 4376.81,1983.1 4358.2,1959.73C4345.26,1943.49 4312.47,1892 4337.88,1880.89C4347.07,1876.88 4377.7,1885.8 4395.58,1878.51C4407.49,1873.66 4412.7,1862.98 4408.43,1847.59C4403.35,1829.3 4363.13,1813.96 4300.14,1793.34C4285.3,1788.48 4243.54,1802.67 4217.15,1807.77C4195.59,1811.93 4186.47,1796.37 4164.89,1799.66C4084.96,1811.87 3992.51,1838.18 3912.53,1846.17C3893.62,1848.06 3919.83,1784.09 3927.44,1748.58C3938.03,1699.16 3955.73,1653.02 3973.27,1595.76C3980.63,1571.72 3946.15,1562.93 3929.5,1565.04C3918.56,1566.42 3902.41,1575.08 3893.8,1594.06C3880.37,1623.63 3849.57,1731.86 3827.05,1809.33C3784.09,1805.66 3744.34,1791 3708.07,1764.42C3702.55,1783.61 3699.8,1808.91 3699.16,1838.85C3727.76,1867.46 3761.06,1900.52 3805.14,1917.06C3892.21,1949.75 4079.81,1861.62 4199.86,1859.26C4250.52,1858.27 4289.45,1874.99 4303.25,1918.56C4307.24,1931.19 4291.61,1963.36 4254.45,1981.22C4150.81,2031.04 3896.67,2103.43 3826.31,2105.68C3758.96,2107.83 3694.08,2061.01 3620.49,2042.19C3593.75,2035.35 3583.55,2110.56 3609.73,2131.2C3664.81,2174.63 3760.91,2222.11 3825.1,2220.06C3935.64,2216.53 4099.72,2158.28 4259.86,2058.47C4265.11,2071.97 4265.31,2089.6 4261.19,2110.74C4258.7,2123.54 4279.65,2137.53 4275.37,2159.04C4271.1,2180.46 4260.6,2195.67 4261.45,2203.86C4263.06,2219.36 4264.6,2236.04 4267.58,2245.24C4270.68,2254.8 4287.78,2263.94 4285.18,2280.97C4282.81,2296.44 4255.82,2308.84 4258.05,2327.41C4259.93,2343.05 4282.3,2352.43 4283.81,2366.19C4285.05,2377.41 4270.77,2387.84 4270.69,2401.62C4270.59,2419.37 4307.5,2442.05 4312.42,2461.39C4315.32,2472.8 4309.37,2488.79 4308.75,2494.81C4306.84,2513.49 4333.7,2528.01 4332.72,2539.64C4331.77,2551.03 4313.27,2537.77 4301.67,2564.98C4153.03,2608.07 3945.33,2682.04 3802.36,2791.09ZM3690.21,3206.22C3683.11,3146.04 3683.25,3087.62 3685.14,3023.56C3660.83,3000.01 3639.68,3006.27 3625.46,2991.1C3618.15,2983.3 3606.4,2954.06 3609,2940.28C3618.22,2891.46 3663.57,2881.96 3715.93,2923.41C3718.97,2893.38 3721.36,2859.2 3730.73,2831.57C3737.44,2811.81 3750.76,2797.25 3756.45,2781.48C3778.83,2719.42 3789.07,2653.64 3788.92,2582.8C3788.69,2469.28 3761.85,2312.39 3731.04,2220.31C3726.83,2207.74 3663.65,2183.87 3624.99,2171.63C3639.41,2239.44 3658.13,2303.29 3679.51,2375.26C3709.77,2477.16 3744.48,2556.04 3767.22,2645.45L3748.18,2628.08C3739.88,2674.77 3714.32,2715.07 3686.01,2755.84C3643,2817.77 3583.98,2866.86 3578.87,2894.45C3568.24,2951.89 3623.96,3111.12 3690.21,3206.22ZM3761.4,2231.87C3792.68,2325.72 3808.92,2426.28 3809.36,2533.89C3824.77,2450.86 3830.26,2356.51 3819.09,2243.16L3761.4,2231.87ZM3849.7,2251.05C3859.01,2404.24 3849.48,2571.48 3788.75,2776.94C3912.14,2701.76 4042,2634.58 4183.85,2582.27C4204.79,2574.55 4155.07,2416.45 4143.25,2345.88C4134.72,2294.95 4134.57,2253.12 4122.67,2218.41C4118.25,2205.51 4113.53,2194.05 4108.47,2184.26C4100.37,2168.61 4014.93,2203.84 3969.17,2215.8C3946.1,2221.83 3912.88,2237 3886.44,2243.98C3866.61,2249.22 3849.41,2246.28 3849.7,2251.05ZM4450.56,2734.35C4463.8,2734.35 4474.55,2745.1 4474.55,2758.34C4474.55,2771.57 4463.8,2782.32 4450.56,2782.32C4437.33,2782.32 4426.58,2771.57 4426.58,2758.34C4426.58,2745.1 4437.33,2734.35 4450.56,2734.35ZM4375.2,2671.35C4389.28,2671.35 4400.7,2682.78 4400.7,2696.85C4400.7,2710.93 4389.28,2722.35 4375.2,2722.35C4361.13,2722.35 4349.7,2710.93 4349.7,2696.85C4349.7,2682.78 4361.13,2671.35 4375.2,2671.35ZM4267.63,2445.56C4282.24,2445.56 4294.11,2457.12 4294.11,2471.35C4294.11,2485.59 4282.24,2497.14 4267.63,2497.14C4253.02,2497.14 4241.15,2485.59 4241.15,2471.35C4241.15,2457.12 4253.02,2445.56 4267.63,2445.56ZM4254.97,2350.35C4263.99,2350.35 4271.32,2357.67 4271.32,2366.69C4271.32,2375.71 4263.99,2383.03 4254.97,2383.03C4245.95,2383.03 4238.63,2375.71 4238.63,2366.69C4238.63,2357.67 4245.95,2350.35 4254.97,2350.35ZM4252.23,2258.36C4262.55,2258.36 4270.93,2266.74 4270.93,2277.05C4270.93,2287.37 4262.55,2295.74 4252.23,2295.74C4241.91,2295.74 4233.54,2287.37 4233.54,2277.05C4233.54,2266.74 4241.91,2258.36 4252.23,2258.36ZM4238.69,2130.32C4251.43,2130.32 4261.78,2140.66 4261.78,2153.41C4261.78,2166.16 4251.43,2176.5 4238.69,2176.5C4225.94,2176.5 4215.59,2166.16 4215.59,2153.41C4215.59,2140.66 4225.94,2130.32 4238.69,2130.32ZM4110.1,1907.25C4101.26,1946 4094.18,1985.34 4091.48,2026.16C3987.59,2053.92 3898.01,2088.03 3812.55,2085.22C3752.6,2083.24 3699.9,2061.36 3647.54,2034.9C3640.44,1963.66 3655.03,1905.68 3684.64,1856.9C3729.23,1896.02 3777.22,1933.96 3835.35,1944.9C3915.1,1959.92 4000.57,1912.52 4110.1,1907.25ZM3854.15,1653.95L3816.65,1784.47C3788.11,1792.32 3754.68,1776.37 3718.03,1744.74C3735.02,1700.11 3766.63,1648.91 3790.12,1631.06C3808.06,1617.43 3843.26,1626.98 3854.15,1653.95ZM4000.91,1629.47C3980.35,1642.47 3946.47,1752.27 3938.45,1819.28C3972.43,1811.28 3997.9,1808.11 4031.74,1801.75C4063.44,1795.8 4122.94,1790.02 4135.3,1773.11C4166.14,1730.89 4153.26,1682.93 4136.44,1657.94C4115.16,1626.33 4047.77,1599.84 4000.91,1629.47ZM3510.18,2247.51C3483.2,2350.19 3401.8,2433.93 3329.11,2496.55C3267.01,2550.05 3195.05,2587.24 3111.03,2604.49C3268.11,2524.93 3396.17,2407.5 3484.41,2240.31L3510.18,2247.51ZM3457.39,2170.33C3465.58,2041.43 3522.71,1937.78 3600.63,1844.87C3628.81,1811.27 3603.03,1783.52 3560.28,1837.4C3483.36,1934.35 3410.45,2063.74 3320.87,2146.58C3282.7,2181.88 3242.03,2211.99 3197.9,2234.99C3246.36,2275.55 3236.83,2326.1 3219.8,2355.91C3206.19,2379.74 3169.37,2423.28 3120.12,2402.01C3204.38,2382.98 3206.09,2306.11 3189.82,2272.47C3171.91,2235.44 3138.01,2195.94 3055.2,2216.6C2926.21,2248.78 2926.85,2340.77 2925.88,2395.51C2924.86,2453.69 2964.88,2550.55 3069.39,2554.22C3022.3,2507.51 2985.28,2467.25 2983.76,2416.47C2982.75,2382.78 3009.07,2336.14 3033.3,2340.77C3069.54,2347.69 3049.03,2434.32 3088.91,2468.51C3101.03,2478.89 3116.87,2483 3132.1,2483.74C3156.42,2484.93 3187.69,2475.87 3216.98,2456.08C3292.97,2404.74 3375.17,2277.2 3457.39,2170.33ZM2911.04,2461.67C2877.8,2533.26 2829.38,2588.8 2756.9,2618.93C2822.15,2617.95 2883.3,2581.07 2940.64,2510.91C2930.64,2493.18 2920.8,2477.08 2911.04,2461.67ZM3253.3,1975.7C3306.59,2017.91 3286.26,2094.39 3206.41,2198.57C3248.04,2175.48 3289.16,2141.97 3329.93,2100.98C3409.35,2021.12 3463.05,1908.63 3565.15,1798.06C3561.15,1774.13 3550.97,1762.57 3536.08,1760.48C3517.2,1757.82 3479.63,1766.84 3449.3,1792.5C3391.9,1841.08 3399.06,1894.17 3253.3,1975.7ZM3395.24,1731.56C3420.99,1756.17 3469.15,1710.82 3457.95,1667.93C3521.5,1605.65 3565.03,1584.66 3575.45,1623.12C3578.9,1635.85 3548.54,1656.59 3511.91,1686.13C3488.24,1705.22 3463.32,1731.52 3440.45,1749.31C3412.41,1772.79 3384.84,1794.1 3365.51,1786.51C3327.46,1771.57 3354.26,1732.04 3337.03,1741.57C3297.37,1763.51 3284.24,1802.55 3292.04,1855.09C3268.73,1821.34 3257.3,1780.34 3265.6,1741.91C3272.54,1709.75 3298.8,1670.83 3331.56,1650.73C3375.32,1623.88 3411.07,1653.41 3422.91,1664.97C3436.95,1678.66 3439.49,1724.5 3395.24,1731.56ZM3789.96,1483.56C3750.45,1546.68 3623.1,1577.12 3568.93,1560.97C3538.16,1551.79 3501.78,1524.08 3502.68,1477.39C3503.62,1428.11 3633.96,1378.38 3683.89,1381.96C3728.33,1385.15 3812.19,1448.02 3789.96,1483.56ZM3598.53,1371.54C3705.18,1327.51 3793.45,1361.35 3842.66,1484.05C3850.76,1504.25 3946.25,1505.06 4002.89,1487.65C4031.74,1478.79 4011.57,1434.14 3974.29,1389.63C3954.84,1366.42 3916.08,1336.85 3881.72,1321.86C3821.88,1295.78 3788.41,1283.76 3725.96,1294.53C3681.93,1302.13 3619.47,1328.52 3598.53,1371.54ZM3891.39,1296.07C3962.41,1329.88 4015.85,1375.79 4042.68,1442.27C4049.16,1458.34 4125.87,1466.08 4162.79,1466.25C4206.66,1466.44 4245.68,1458.41 4283.81,1442.65C4303.14,1434.67 4270.39,1389.41 4229.52,1354.89C4195.57,1326.23 4156.67,1301.74 4127.09,1293.89C4071.14,1279.05 3966.64,1259.9 3891.39,1296.07ZM4149.04,1272.58C4226.66,1307.91 4286.18,1355.57 4336.46,1440.44C4347.4,1458.93 4424.48,1463.07 4461.31,1465.87C4494.61,1468.41 4523.89,1466.16 4548.82,1458.77C4583.69,1448.42 4515.75,1364.65 4481.73,1336.91C4443.94,1306.08 4406.04,1275.95 4352.11,1254.26C4315.43,1239.51 4191.86,1249.89 4149.04,1272.58ZM4381.93,1235.44C4474.66,1283.19 4552.4,1341.09 4595.83,1447.25C4607.12,1474.84 4739.8,1498.35 4746.28,1474.14C4761.04,1419.03 4668.53,1330.38 4613.28,1293.01C4548.02,1248.86 4469.07,1233.52 4381.93,1235.44ZM3861.23,1128.12C3952.91,1115.07 4070.02,1058.04 4141.53,1065.57C4143.33,1081.11 4152.97,1105.41 4169.78,1103.98C4221.23,1099.61 4256.81,1103.2 4284.53,1110.04C4310.15,1116.35 4338.49,1157.91 4298.25,1167.16C4228.69,1183.13 4155.45,1177.44 4176.77,1238.08C4151.96,1243.29 4128.44,1250.62 4106.46,1260.52C4019.32,1245.05 3934.01,1240.94 3854.91,1275.32C3794.42,1264.46 3735.2,1261.76 3679.22,1279.69C3688.2,1234.07 3728.68,1194 3759.3,1168.82C3789.52,1143.96 3824.15,1133.39 3861.23,1128.12ZM4413.32,1088.3C4413.82,1113.38 4216.88,1052.47 4120.09,1053.94C4035.92,1055.23 3922.56,1124.64 3913.44,1099.56C3892.99,1043.29 4011.66,981.634 4150.23,986.245C4302.03,991.297 4412.07,1026.49 4413.32,1088.3ZM4325.31,978.799C4320.1,974.286 4337.29,960.542 4358.06,951.439C4376.02,943.562 4395.95,940.413 4404.24,950.176C4412.59,960.007 4412.38,973.077 4405.34,981.158C4395.07,992.942 4373.18,997.256 4366.12,991.43C4351.26,979.177 4402.55,967.744 4389.46,963.098C4367.75,955.394 4341.24,992.588 4325.31,978.799ZM4451.93,879.122C4431.44,857.895 4482.45,837.573 4541.49,817.352C4532.09,838.788 4500.16,853.971 4478.31,865.575C4463.06,873.674 4455.6,882.919 4451.93,879.122ZM4506.35,878.805C4518.21,886.926 4534.14,892.545 4544.87,901.04C4556.56,910.299 4566.9,920.396 4566.15,935.682C4565.89,940.95 4556.09,935.419 4543.86,926.64C4531.46,917.74 4516.59,905.507 4510.3,898.767C4499.76,887.469 4498.14,873.185 4506.35,878.805ZM3933.77,836.993C3953.99,822.357 3959.26,797.101 3954.61,764.808C3952.44,749.699 3975.11,731.883 3989.68,726.838C4001.09,722.883 4023.84,744.237 4085.57,723.005C4153.49,699.646 4181.39,623.668 4217.56,611.386C4262.67,596.068 4330.48,656.778 4331.57,694.217C4332.66,731.73 4290.73,772.423 4207.54,838.752C4171.74,867.287 4122.23,911.513 4103.69,967.248C4134.06,959.091 4162.92,956.717 4188.01,968.79C4235.18,842.889 4325.21,844.551 4364.97,770.692C4382.78,737.6 4395.1,702.272 4399.74,663.814C4411.69,667.873 4422.46,674.166 4431.69,683.353C4443.38,589.333 4340.11,541.174 4274.57,523.979C4210.37,507.137 4080.76,524.397 4044.42,566.025C4017.75,596.578 3997.71,645.089 3978.69,708.943C3960.62,720.636 3942.39,738.548 3936.16,758.394C3921.62,778.567 3904.68,794.294 3884.34,803.745C3899.91,810.564 3918,800.904 3938.13,777.828C3944.31,794.04 3941.04,814.597 3933.77,836.993ZM4106.19,605.383C4095.77,620.475 4082.37,630.971 4062.14,630.928C4067.63,649.831 4090.8,671.387 4104.07,655.029C4117.08,638.982 4114.02,622.28 4106.19,605.383ZM4449.05,2248.46C4417.39,2216.73 4401.68,2170.04 4403.52,2122.54C4466.29,2158.94 4502.74,2160.98 4524.94,2142.5C4579.84,2096.8 4540.14,1809.05 4390.18,1638.79C4340.22,1582.05 4381.5,1536.87 4414.87,1574.42C4591.89,1773.66 4647.07,1972.33 4638.73,2106.91C4633.51,2191.11 4597.88,2249.84 4568.82,2269.12C4544.84,2285.05 4492.48,2291.97 4449.05,2248.46ZM4410.78,2104.58C4404.51,2112.74 4394.98,2098.51 4396.34,2079.48C4397.34,2065.36 4403.78,2051.41 4410.81,2042.08C4432.24,2013.59 4447.31,2018.85 4440.99,2042.01C4434.02,2067.54 4425.44,2085.48 4410.78,2104.58ZM4400.57,2277.14C4423.19,2355.93 4455.63,2412.32 4497.34,2467.01C4512.28,2486.6 4527.66,2471.78 4511.5,2451.88C4470.43,2401.32 4447.83,2337.28 4421.92,2273.55C4414.63,2255.63 4394.84,2257.16 4400.57,2277.14ZM4521.87,2415.36C4515.6,2398.77 4502.77,2376.16 4493.21,2356.99C4487.6,2345.76 4470.54,2346.08 4475.66,2368.07C4480.72,2389.82 4492.44,2405.28 4511.1,2424.34C4520.16,2433.6 4526.02,2426.34 4521.87,2415.36ZM4545.49,2496.39C4500.02,2488.38 4453.14,2494.05 4404.57,2516.13C4393.6,2521.12 4402.34,2541.56 4413.4,2546.12C4425.07,2550.95 4448.05,2539.36 4478.06,2539.77C4507.6,2540.16 4518.65,2550.33 4447.9,2556.25C4428.48,2557.87 4417.72,2588.43 4443.77,2596.44C4457.63,2600.7 4463.64,2588.19 4456.22,2574.13C4450.18,2562.68 4493.34,2581.06 4508.82,2575.44C4519.29,2571.64 4535.27,2560.21 4535.7,2549.63C4535.88,2545.09 4528.43,2539.51 4521.49,2535.72C4531.9,2535.11 4545.48,2535.52 4551.82,2532.08C4562.8,2526.1 4557.02,2506.87 4545.49,2496.39ZM4588.76,2576.47C4611.51,2631.34 4641.82,2674.49 4686.65,2727.67C4754.18,2807.77 4889.66,2898.97 4955.61,2974.05L5027.13,2972.81C5014.37,2940.89 4939.64,2901.17 4864.84,2845.39C4804.08,2800.07 4745.35,2742.85 4698.27,2694.85C4661.74,2657.6 4624.91,2617.81 4588.76,2576.47ZM4687.25,1616.41C4708.91,1653.06 4717.28,1677.88 4730.12,1723.47C4734.49,1739 4776.79,1749.43 4802.9,1750.32C4830.06,1751.24 4854.28,1744.59 4884.83,1730.69C4917.27,1715.93 4929.57,1660.9 4926.43,1633.13C4923.44,1606.64 4906.96,1568.98 4874.06,1563.14C4839.09,1556.92 4808.77,1589.43 4827.06,1624.18C4834.39,1638.12 4858.97,1661.25 4867.72,1679.09C4871.74,1687.29 4869.21,1694.98 4865.86,1699.06C4858.74,1707.72 4836.76,1708.81 4791.22,1697.91C4769.21,1692.64 4782.85,1660.07 4780.8,1630.4C4779.16,1606.77 4760.28,1583.38 4748.82,1578.11C4731.74,1570.26 4666.48,1581.27 4687.25,1616.41ZM4634.78,1616.12C4780.52,1819.2 4762.97,2022.81 4885.96,2195.27C4914.62,2235.45 4949.42,2269.01 4981.97,2281.96C4985.07,2326.21 5048.05,2380.2 5117.02,2390.24C5143.2,2394.05 5168.13,2382.61 5194.08,2374.95C5199.15,2471.38 5090.03,2491.29 4972.98,2441.02C4922.49,2419.34 4860.58,2378.54 4800.24,2308.25C4748.14,2247.55 4711.34,2096.9 4682.77,1948.22C4662.73,1843.87 4654.13,1742.77 4615.33,1664.65C4594.82,1623.35 4624.34,1601.56 4634.78,1616.12ZM5274.06,2202.59C5238.61,2114.88 5130.26,2079.6 5039.86,2147.26C4969.13,2200.18 5017.9,2342.99 5117.97,2353.9C5190.34,2361.8 5223.37,2323.98 5208.81,2271.46C5197.54,2230.83 5138.76,2234.41 5133.85,2213.78C5121.44,2161.7 5210.65,2153.43 5274.06,2202.59ZM5775.95,2041.12C5958.44,2164.02 6007.83,2315.01 6016.29,2459.17C6025.19,2610.73 5985.35,2811.35 5808.06,2929.65C5816.11,2910.12 5823.08,2891.4 5828.43,2873.86C5627.09,2996.08 5393.54,3039.8 5182.75,2918.18C5400.9,2966.45 5637.28,2887.71 5742.55,2768.11C5839.43,2658.04 5910.59,2412.18 5816.05,2252.13C5776.11,2184.52 5723.71,2148.93 5664.15,2115.57C5507.6,2027.89 5305.26,2149.99 5085.73,2000.65C5060.66,1983.6 5049.69,1960.73 5043.22,1940.99C5034.65,1914.84 5056.82,1894.12 5058.86,1876.76C5061.19,1856.89 5043.34,1842.6 5028.94,1849.73C4989.12,1869.46 4982.84,1919.18 4985.43,1953.34C4988.98,2000.09 5002.01,2030.54 5069.41,2085.13L5013.51,2118.1C4935.15,2046.55 4936.06,1987.74 4936.47,1931.48C4936.82,1884.48 4956.77,1841.93 4999.79,1804.65C5038.45,1771.15 5105.6,1763.26 5168.52,1811.51C5217.79,1849.3 5224.41,1932.67 5137.69,1957.48C5235.53,1984.06 5349.59,1946.69 5494.55,1955.95C5604.14,1962.95 5705.73,1993.84 5775.95,2041.12ZM4554.35,2354.04C4762.92,2632.56 4945.45,2741.23 5159.57,2801.78C5299.22,2841.28 5431.85,2847.38 5536.91,2762.45C5418.64,2809.08 5313.26,2779.73 5228.83,2626.82C5006.6,2614.57 4819.44,2482.95 4653.33,2279.76C4646.65,2271.59 4628.99,2280.77 4637.19,2292.31C4740.53,2437.61 4867.03,2528.21 4981.97,2589.77C4847.11,2542.04 4723.46,2447.94 4612.36,2301.9C4603.02,2289.64 4572.88,2307.28 4585.48,2324.69C4656.99,2423.55 4746.28,2525.24 4869.97,2632.42C4760.67,2559.2 4657.12,2461.45 4568.15,2343.82C4561.88,2335.52 4547.19,2344.48 4554.35,2354.04ZM4979.29,2763.49C5112.74,2868.19 5251.69,2886 5372.04,2885.17C5475.07,2884.46 5569.06,2865.46 5655.1,2781.12C5747.85,2690.2 5729.48,2450.45 5589.38,2423.75C5518.34,2410.22 5442,2436.52 5381.64,2516.5C5317.49,2470.84 5364.77,2386 5476.96,2344.65C5546.08,2319.18 5649.43,2343.82 5713.82,2395.78C5722.71,2402.95 5746,2396.91 5751.61,2388.96C5777.14,2352.76 5689.36,2277.3 5629.9,2252.52C5579.85,2231.67 5505.37,2222.06 5434.18,2244.99C5321.21,2281.38 5243.69,2384.52 5236.31,2489.66C5231.25,2561.87 5268.58,2637.96 5308.92,2680.06C5339.09,2711.56 5383.54,2748.38 5468.71,2752.72C5544.78,2756.6 5595.38,2685.1 5597.28,2638.77C5598.78,2602.43 5521.23,2519.22 5441.56,2550.71C5523.86,2503.83 5560.9,2533.92 5591.61,2559.93C5615.97,2580.56 5637.31,2619.43 5620.68,2674.08C5586.42,2786.68 5468.88,2841.08 5356.29,2853.77C5252.29,2865.49 5119.68,2825.76 4979.29,2763.49ZM5213.01,2524.81C5215.4,2548.1 5218.02,2571.99 5221.43,2597.93C5176.98,2594.29 5132.9,2588.68 5090.01,2576.8C5137.85,2567.31 5178.23,2549.27 5213.01,2524.81ZM4846.97,2022.36C4868.97,2093.25 4903.41,2159.32 4962.1,2215.96C4968.39,2184.94 4976.78,2153.73 4988.74,2132.37C4933.9,2106.79 4888.34,2071.39 4846.97,2022.36ZM5916.97,2111.33C5941.9,2150.89 5966.22,2192.29 5989.91,2235.55C5975.78,2128.91 6024.15,1995.72 6083.94,2007.09C6100.11,2010.16 6098.06,2025.58 6100.32,2045.82C6102.85,2068.62 6038.49,2116.96 6106.75,2171.24C6175,2225.51 6257.99,2128.44 6267.4,2083.49C6278.52,2030.39 6265.81,1941.54 6177.27,1895.5C6064.83,1837.04 5924.2,1964.68 5916.97,2111.33ZM6126.53,2299.49L6192.48,2317.3C6200.38,2381 6185.4,2451.11 6147.16,2508.08C6149.01,2437.85 6144.22,2368.15 6126.53,2299.49ZM5924.9,2869.13C5946.66,2861.33 6145.13,2813.29 6166.29,2819.29C6160.28,2781.41 5943.42,2837.89 5924.9,2869.13ZM5454.26,3078.93C5525.89,3102.97 5597.63,3128.21 5669.49,3154.68C5653.29,3124.76 5630.77,3091.63 5605.45,3057.09C5553.13,3060.12 5503.09,3068.2 5454.26,3078.93ZM5694.31,3708.05C5742.31,3659 5775.4,3584.25 5775.05,3507.61C5774.38,3360.94 5743.79,3268.5 5696.09,3207.09C5693.01,3369.86 5700.24,3537.86 5694.31,3708.05ZM5790.91,3183.48C5844.09,3341.9 5894.36,3501.21 5900.92,3673.67C5913.84,3630.28 5919.9,3584.53 5920.49,3536.88C5937.65,3612.48 5947.54,3689.67 5888.16,3781.93C5845.38,3718.56 5796.07,3678.98 5720.62,3734.72C5630.14,3801.57 5648.14,3972.68 5772.56,3985.02C5697.53,3943.19 5697.18,3828.12 5747.92,3803.59C5784.26,3786.02 5834.26,3808.41 5877.38,3894.93C5945.95,3873.8 5984.38,3806.37 5995.22,3744.55C6008.84,3666.86 5992.43,3559.28 5971.68,3480.25C6034.26,3503.25 6082.81,3545.7 6112.58,3614.16C6162.9,3605.2 6213.22,3611.74 6263.52,3648.83C6291.21,3669.25 6451.07,3723.44 6482.29,3765.87C6503.09,3794.13 6517.69,3836.42 6516.39,3892.72C6514.7,3965.61 6493.13,4055.75 6494.16,4104.53C6495.03,4145.49 6587.55,4189.39 6619.89,4239.22C6642.88,4274.65 6660.28,4312.95 6670.51,4354.96C6729.86,4125.76 6708.03,3958.29 6614.39,3845.43C6571.02,3794.95 6523.66,3744.43 6463.2,3706.52C6368.23,3646.95 6302.53,3659.21 6307.83,3611.88C6311.02,3583.41 6363.9,3595.15 6407.72,3619.33C6383.6,3521.12 6277.83,3529.47 6163.06,3521.44C6106.26,3517.47 6040.31,3484.78 6003.21,3456.16C5914.53,3387.77 5842.82,3298.06 5790.91,3183.48ZM6103.64,3306.57C6027.9,3281.55 5968.48,3232.51 6001.45,3203.53C6027.89,3180.3 6074.9,3245.62 6103.64,3306.57ZM5959.7,3152.94C6060.53,3080.04 6168.23,3277.14 6354.43,3360.86C6451.18,3404.36 6558.47,3419.32 6645.81,3408.11C6571.2,3354.66 6519.81,3300.77 6484.48,3246.58C6422.74,3229.82 6383.09,3218.82 6342.95,3220.95C6297.5,3223.37 6257.43,3232.08 6222.3,3210.88C6187.06,3189.61 6180.19,3165.74 6190.27,3146.06C6214.5,3098.79 6294.51,3112.67 6360.9,3198.44C6409.03,3187.03 6454.31,3196.03 6497.85,3217.51C6591.32,3224.13 6679.79,3176.79 6745.34,3093.62C6835.49,2979.25 6825.16,2816.02 6783.44,2705.99C6734.7,2577.47 6577.27,2486.46 6426.18,2534.01C6256.35,2587.46 6141.18,2714.09 6166.29,2819.29C6189.4,2916.07 6342.05,2917.32 6385.48,2814.95C6426.23,2718.88 6323.81,2705.16 6323.29,2784.13C6274.34,2743.95 6317.47,2654.89 6399.88,2644.41C6500.45,2631.63 6602.64,2737.92 6605.91,2834.32C6607.89,2892.49 6597.74,3017.48 6522.99,3058.94C6441.53,3104.13 6379.42,3110.68 6302.09,3104C6119.49,3088.24 6019.06,2884.36 5975.67,2887.04C5949.05,2888.68 5919.47,2897.4 5897.38,2915.3C5847.27,2955.92 5842.16,2971.03 5778.95,3006.7C5875.26,3178.97 5965.66,3316.02 6042.5,3409.32C6084.28,3460.05 6147.95,3457.48 6241.64,3473.57C6165.87,3429.59 6122.56,3383.99 6118.76,3336.42C5987.97,3333.79 5897.92,3197.61 5959.7,3152.94ZM6336.54,3191.05C6287.59,3143.07 6221.69,3118.61 6212.28,3152.07C6206.95,3171.02 6216.07,3182.9 6231.75,3188.99C6252.84,3197.19 6285,3183.41 6336.54,3191.05ZM6514.98,3244.27C6583.06,3270.51 6652.78,3283.51 6727.36,3256.98C6721.23,3225.11 6722.51,3192.98 6728.78,3160.7C6662.16,3203.55 6591.47,3233.28 6514.98,3244.27ZM7068.28,3208.64C7023.51,3110.96 6939.69,3052.72 6851.02,3121.12C6815.05,3159.75 6821.05,3221.11 6872.38,3221.87C6890.22,3222.13 6896.55,3188.02 6913.11,3168.53C6925.08,3154.44 6945.7,3151.97 6964.13,3156.71C6986.59,3162.5 7018.13,3196.37 7022.7,3238.86C7028.53,3293.16 6999.53,3363.58 6950.24,3429.43C6885.41,3516.06 6755.26,3546.97 6640.45,3552.71C6572.81,3556.09 6500.25,3544.44 6421.2,3512.92C6518.06,3510.99 6611.12,3490.01 6695.08,3423.3C6674.59,3409.71 6659.01,3392.27 6644.78,3373.77C6739.14,3362.82 6920.84,3353.26 6960.21,3303.2C6979.97,3278.08 7001.51,3241.92 6966.41,3210.56C6957.99,3304.83 6865.85,3343.95 6779.65,3266.87C6709.26,3203.92 6777.54,3076.98 6856.33,3047.46C6961.55,3008.03 7064.62,3064.88 7068.28,3208.64ZM6474.89,3997.08C6497.94,3932.15 6489.71,3833.78 6450.24,3833.05C6431.46,3832.7 6424.24,3848.29 6425.19,3871.21C6426.64,3906.33 6458.19,3940.64 6474.89,3997.08ZM6259.25,4262.17C6289.64,4172.35 6266.63,4102.2 6287.17,4058.85C6299.87,4032.06 6317.95,4018.88 6343.42,4027.25C6414.44,4050.6 6342.99,4180.65 6259.25,4262.17ZM6221.51,3880.58C6247.59,3798.48 6235.93,3629.54 6157.11,3644.02C6133.15,3648.43 6126.28,3678.55 6135.8,3711.81C6151.15,3765.45 6200.13,3835.48 6221.51,3880.58ZM6236.46,3657.49C6283.75,3691.89 6337.66,3719.5 6399.48,3739.01C6343.04,3782.43 6289.6,3830.45 6302.85,3980.48C6283.26,4003.36 6268.63,4035.7 6255.96,4074.54C6229.09,4156.91 6249.08,4254.36 6218.83,4303.66C6146.51,4421.54 6008.96,4429.44 5965.96,4384.44C5940.19,4357.47 5881.88,4330.84 5923.88,4234.4C5893.59,4211.33 5855.66,4204 5812.44,4207.57C5760.05,4157.27 5686.03,4247.17 5712.53,4349.9C5606.54,4089.1 5833.11,3990.55 5892.93,4011.46C5913.65,4018.71 5960.21,4035.23 5956.82,4095.17C5987.24,4079.39 6018.85,4065.19 6044.56,4088.43C6067.31,4109 6061.67,4148.31 6041.11,4178.37C6002.86,4234.29 5926.83,4285.09 5983.47,4312.94C6059.8,4350.49 6159.89,4224.53 6203.08,4111.36C6244.69,4002.32 6276.94,3790.78 6236.46,3657.49ZM6016.42,3821.17C6032.26,3887.25 6009.97,3964.08 5971.95,4045.34C5959.42,4028.56 5944.18,4013.69 5925.34,4001.36C5969.28,3952.22 5995.41,3888.75 6016.42,3821.17ZM6533.35,4229.39C6578.39,4358.69 6528.12,4465.35 6439.33,4562.86C6728.04,4501.76 6810.97,4367.53 6827.38,4241.44C6836.83,4168.8 6817.9,4069.07 6744.07,4004.78C6759.81,4171.2 6749.99,4322.89 6652.13,4423.83C6634.63,4331.63 6617.32,4239.18 6533.35,4229.39ZM6395.81,4234.61C6496.95,4321.18 6468.66,4451 6366.81,4605.41C6401.45,4615.07 6432.44,4629.52 6459.65,4648.91C6430.44,4691.74 6393.33,4729.71 6350.52,4764.17C6238.07,4854.69 6088.81,4861.45 5934.9,4987.59C5877.85,4906.55 5835.88,4847.32 5841.81,4790.96C5848.53,4727.09 5897.29,4673.66 5969.55,4626.07C5921.72,4690.5 5935.84,4740.43 5954.23,4775.42C5971.9,4809.06 6026.76,4848.67 6095.5,4820.77C6177.23,4787.59 6324.75,4646.18 6375.64,4469.71C6386.77,4431.12 6286.57,4589.02 6194.67,4669.61C6154.46,4704.87 6113.27,4720.53 6088,4706.55C6051.25,4686.21 6083.96,4608.14 6144.59,4573.14C6218.09,4530.72 6320.65,4457.15 6336.32,4407.39C6345.43,4378.46 6345.38,4360.71 6332.58,4335.89L6395.81,4234.61ZM6185.68,4469.18C6174.43,4492.51 6158.13,4514.02 6136.13,4533.45C6168.63,4519.64 6200.91,4492.43 6232.69,4434.25C6261.67,4404.21 6287.88,4377.5 6312.49,4352.71C6334.13,4404.61 6274.39,4486.6 6118,4564.31C6107.22,4569.66 6085.64,4526.46 6089.19,4515.64C6091.53,4508.48 6155,4484.73 6185.68,4469.18ZM5847.4,4607.3C5755.61,4659.21 5651.04,4719.82 5618.62,4874.84C5610.32,4914.54 5685.04,5010.11 5693.44,5137.97C5770.64,5064.18 5708.15,4915.68 5759.63,4774.44C5781.95,4713.2 5810.76,4657.11 5847.4,4607.3ZM5655.68,5082.4C5504.42,5304.79 5461.55,5688.93 5601.84,6019.07C5610.53,5943.58 5623.16,5868.64 5643.32,5794.72C5605.17,5592.3 5615.2,5388.79 5677.2,5184.11L5655.68,5082.4ZM5819.83,5248.74C5796.52,5363.51 5818.46,5466.05 5917.63,5547.72C5939.9,5522.05 5964.46,5503.72 5990.67,5490.69C5958.7,5473.53 5932.3,5448.76 5915.79,5410.51C5991.09,5407.27 6031.78,5372.29 6056.66,5322.81C5981.59,5329.9 5926.36,5298.44 5901.22,5208.57C5875.07,5222.34 5867.22,5252.38 5869.44,5291.4C5852.28,5277.46 5835.81,5263.22 5819.83,5248.74ZM5974.27,5012.89C5929.8,5102.42 5916.01,5186.87 5958.06,5262.1C6060.36,5137.47 6157.04,5003.6 6250.7,4864.79C6153.99,4908.18 5982.73,4995.86 5974.27,5012.89ZM6101.38,5111.4L5979.09,5280.64C6053.44,5323.79 6113.62,5267.13 6164.84,5147.25C6142.68,5136.32 6121.28,5124.62 6101.38,5111.4ZM6727.6,4664.38C6701.44,4706.06 6675.96,4769.89 6694.76,4848.42L6744.65,4821.95C6723.64,4763.25 6720.08,4711.58 6727.6,4664.38ZM6616.71,4990.27C6549.41,4901.9 6582.52,4767 6649.84,4688.06C6642.23,4747.94 6643.09,4802.37 6659.06,4847.08C6666.76,4868.65 6684.27,4926.46 6700.52,4899.42C6738.34,4836.49 6817.24,4804.14 6866.02,4872.53C6891.55,4908.33 6888.48,4968.91 6850.66,5019.47C6855.15,4951.3 6838.88,4889.05 6783.63,4910.77C6757.65,4920.98 6805.5,4993.01 6756.99,5019.33C6705.32,5047.37 6652.2,5036.88 6616.71,4990.27ZM6589.36,6470.51C6598.2,6476.54 6615.96,6467.01 6623.83,6452.46C6633.57,6434.43 6615.13,6419.16 6643.61,6399.44C6666.02,6383.92 6691.16,6409.62 6690.25,6434.98C6688.53,6482.3 6604.87,6543.7 6543.72,6512.88C6411.19,6446.1 6497.27,6276.41 6595.85,6248.92C6659.84,6231.08 6732.44,6266.21 6768.46,6305.61C6809.44,6350.44 6841.13,6422.96 6819.53,6508.57C6795.65,6380.5 6705.44,6278.72 6610.95,6322.04C6552.17,6349 6528.08,6428.77 6589.36,6470.51ZM5948.01,6454.73C5844.6,6357.96 5795.37,6239.21 5781.23,6129.2C5759.95,5963.57 5780.44,5753.3 5892.61,5624.37C5892.45,5609.13 5898.95,5599.1 5903.62,5588.49C5868.3,5555.28 5841.37,5527 5818.38,5500.74C5648.2,5678.65 5616.38,5945.95 5655.34,6159.16C5683.98,6315.92 5759.56,6499.84 5925.68,6617.06C5838.83,6509.17 5860.26,6456.05 5891.69,6492.68C6095.98,6730.74 6224.2,6722.81 6364.44,6740.43C6515.35,6759.4 6713.6,6640.41 6703.79,6462.9C6672.8,6501.64 6637.79,6532.98 6590.6,6541.96C6482.1,6621.7 6350.26,6627.19 6230.88,6606.35C6136.17,6589.82 6041.84,6542.54 5948.01,6454.73ZM6243.23,6365.95C6260.56,6355.7 6290.75,6395.35 6268,6428.77C6243.4,6464.91 6156.57,6514.38 6018.4,6475.47L6148.76,6553.68C6297.62,6538.41 6362.55,6478.97 6386.18,6425.23C6408.92,6373.51 6387.35,6250.02 6306.78,6241.16C6214.69,6231.04 6131.31,6295.03 6070.4,6249.52C6004.7,6200.45 6068.4,6108.73 6132.27,6019.76C6113.29,6006.45 6097.71,5991.38 6086.13,5974.23C6011.69,5995.18 5944.08,5989.1 5888.42,5935.64C5817.26,6057.67 5888.94,6233.28 5955.26,6315.53C6006.35,6378.9 6119.69,6439.01 6243.23,6365.95ZM6089.19,6128.31C6111.92,6091.53 6138.59,6045.92 6178.51,6039.42C6221.73,6032.38 6271.43,6008.72 6305.73,5971.84C6363.14,5910.12 6398.19,5821.52 6439.62,5786.17C6543.77,5697.3 6624.4,5726.29 6700.1,5679.09C6736.02,5656.7 6768.7,5630.96 6797.1,5600.78C6710.6,5739.27 6652.91,5913.27 6552.13,5995.29C6496.64,6040.44 6433.77,6066.47 6360.86,6066.53C6379.29,6092.52 6417.98,6094.12 6469.53,6080.22C6445.23,6104.5 6418.18,6114.66 6381.35,6124.6C6304.28,6145.41 6244.68,6093.41 6089.19,6128.31ZM5886.12,5659.84C5886.55,5721.15 5920.65,5748.5 5947.5,5761.1C5975.43,5774.2 6026.91,5767.44 6058.53,5733.83C6070.71,5794.7 5994.58,5835.62 5915.21,5789.05C5852.22,5752.08 5856.54,5705.66 5886.12,5659.84ZM6044.59,5645.81C6060.19,5703.23 5998.81,5761.29 5939.29,5717.26C5899.19,5687.6 5902.47,5614.71 5935.77,5569.79C5973.21,5519.3 6037.92,5478.72 6125.95,5495.06C6205.05,5509.75 6281.59,5562.2 6311,5627.57C6333.98,5678.67 6332.58,5745.79 6295.86,5836.11C6311.82,5712.84 6243.98,5537.15 6157.77,5559.89C6111.4,5572.13 6111.2,5621.37 6211.06,5675.79C6236.94,5689.89 6249.44,5758.91 6222.44,5808.44C6192.76,5862.89 6144.68,5893.03 6089.4,5906.97C6048.2,5917.37 5957.25,5921.18 5933.4,5837.21C6017.25,5856.36 6061.6,5815.74 6077.46,5786.99C6097.11,5751.36 6108.25,5673.74 6044.59,5645.81ZM6233.35,5440.95C6262.69,5470.75 6272.05,5500.7 6263.01,5530.79C6234.92,5505.43 6200.04,5488.31 6159.33,5478.26C6187.54,5469.01 6212.34,5456.7 6233.35,5440.95ZM6284.38,5544.6C6366.83,5517.8 6425.28,5454.68 6462.55,5372.33C6406.05,5375.11 6349.29,5358.15 6315.47,5318.82C6280.01,5277.59 6270.76,5203.77 6308.72,5156.32C6367.67,5082.66 6459.78,5085.53 6577.49,5147.46C6653.95,5187.69 6690.15,5332.21 6675.72,5410.6C6660.68,5492.26 6593.85,5563.69 6473.33,5624.5C6635.56,5507.61 6622.26,5371.31 6608.06,5300.3C6601.26,5266.33 6557.11,5217.97 6507.45,5197.24C6463.03,5178.71 6412.79,5183.56 6403.55,5219.91C6395.46,5251.73 6435.19,5266.45 6480.77,5265.7C6544.8,5297.09 6543.18,5390.93 6522.64,5446.4C6499.36,5509.25 6434.41,5566.95 6328.89,5617.83C6318.09,5592.35 6303.69,5567.82 6284.38,5544.6Z"/>
    </g>
</svg>
